<?xml version="1.0" standalone="no"?>
<!DOCTYPE svg PUBLIC "-//W3C//DTD SVG 20010904//EN"
 "http://www.w3.org/TR/2001/REC-SVG-20010904/DTD/svg10.dtd">
<svg version="1.0" xmlns="http://www.w3.org/2000/svg"
 width="1280.000000pt" height="1264.000000pt" viewBox="0 0 1280.000000 1264.000000"
 preserveAspectRatio="xMidYMid meet">
<metadata>
Created by potrace 1.15, written by Peter Selinger 2001-2017
</metadata>
<g transform="translate(0.000000,1264.000000) scale(0.100000,-0.100000)"
fill="#FFFFFF" stroke="none">
<path d="M7000 12625 c-22 -26 -24 -109 -5 -167 9 -29 39 -91 65 -138 315
-552 473 -1522 339 -2080 -28 -115 -99 -260 -155 -317 -59 -58 -133 -93 -202
-93 -48 0 -56 4 -98 42 -150 138 -449 730 -624 1233 -44 130 -75 192 -102 209
-26 16 -64 -26 -79 -87 -25 -107 12 -439 80 -697 17 -63 59 -200 95 -305 66
-192 73 -215 58 -215 -29 0 -302 187 -479 329 -141 112 -539 505 -759 748
-214 236 -240 256 -278 217 -25 -25 -21 -144 8 -226 65 -183 323 -535 623
-850 68 -71 131 -144 139 -161 9 -18 42 -59 73 -92 46 -49 53 -60 37 -63 -42
-9 -209 72 -384 186 -146 96 -196 118 -235 103 -77 -29 -46 -121 86 -254 126
-127 321 -250 565 -356 191 -84 466 -161 574 -161 98 0 226 -62 382 -184 195
-153 279 -269 591 -811 192 -334 462 -721 678 -970 52 -60 160 -179 239 -263
l145 -153 -24 -136 c-60 -348 -139 -615 -263 -899 -71 -163 -80 -180 -137
-259 -105 -145 -240 -200 -393 -161 -202 52 -283 154 -450 571 -200 499 -408
939 -567 1202 -168 278 -422 563 -570 640 -49 26 -54 27 -69 11 -15 -15 -15
-20 0 -66 25 -75 188 -400 245 -490 70 -109 148 -292 165 -387 4 -22 23 -67
41 -101 104 -187 228 -556 404 -1204 44 -162 91 -332 104 -377 l25 -83 -117 0
c-92 0 -137 5 -213 25 -53 14 -168 39 -255 55 -87 17 -230 46 -318 65 -246 53
-417 72 -848 95 l-187 10 -120 74 c-185 115 -258 174 -501 407 -369 355 -500
496 -600 646 -98 146 -144 203 -165 203 -7 0 -16 11 -20 24 -3 14 -47 91 -96
173 -50 81 -133 218 -185 303 -52 85 -144 253 -204 374 -125 250 -123 243 -90
445 38 228 87 714 98 975 9 223 -18 346 -77 346 -46 0 -84 -100 -141 -380 -51
-248 -90 -390 -109 -390 -15 0 -29 26 -54 102 -29 85 -142 534 -176 697 -12
57 -27 114 -33 128 -15 32 -46 26 -69 -13 -43 -73 -63 -278 -32 -322 15 -21
14 -22 -13 -22 -54 1 -78 34 -168 233 -37 81 -81 174 -100 205 -18 31 -52 91
-75 132 -24 41 -57 99 -74 129 -17 30 -63 87 -103 128 -78 79 -106 90 -143 53
-45 -45 -39 -85 58 -355 137 -384 253 -807 342 -1245 51 -251 63 -359 58 -517
-5 -183 -28 -220 -188 -299 -90 -44 -167 -64 -250 -64 -202 0 -285 112 -395
534 -19 72 -79 331 -134 576 -164 734 -154 700 -201 685 -48 -15 -55 -59 -58
-360 -6 -417 18 -797 63 -1010 30 -143 35 -186 26 -209 -7 -17 -10 -16 -33 15
-62 84 -179 331 -263 554 -29 77 -83 207 -119 289 -37 82 -98 241 -137 354
-135 394 -297 701 -401 757 -32 17 -38 17 -53 5 -21 -18 -18 -86 19 -350 40
-288 64 -383 183 -745 149 -454 461 -1156 564 -1270 19 -22 64 -83 100 -135
99 -147 339 -377 563 -540 77 -57 146 -107 426 -313 30 -23 82 -66 114 -96 52
-49 438 -481 490 -548 30 -38 199 -186 258 -225 80 -54 487 -292 602 -353 214
-114 523 -230 783 -294 152 -38 223 -50 347 -61 122 -10 155 -21 366 -120 237
-112 363 -151 605 -189 310 -49 614 -79 915 -91 239 -10 297 -17 592 -74 102
-20 260 -48 350 -61 187 -28 250 -45 331 -88 80 -42 107 -76 107 -135 0 -32 8
-60 25 -87 45 -74 25 -140 -47 -152 -33 -5 -38 -3 -38 14 0 43 -82 112 -117
99 -9 -4 -23 3 -34 18 -33 43 -210 140 -269 148 -21 2 -25 -1 -23 -20 3 -26 5
-26 -38 -8 -38 16 -269 46 -371 49 -43 1 -71 -3 -82 -12 -11 -9 -31 -12 -61
-9 -40 5 -43 4 -35 -12 13 -25 75 -77 100 -85 27 -9 50 11 50 41 0 31 6 30 59
-6 71 -48 125 -53 114 -11 -7 26 10 27 45 2 15 -11 45 -21 67 -21 74 -3 77 -2
69 23 -6 21 -6 22 14 4 12 -11 18 -26 15 -37 -6 -22 37 -70 63 -70 9 0 43 12
75 26 74 33 89 28 89 -31 0 -49 8 -54 50 -30 32 18 40 18 40 1 0 -22 49 -56
81 -56 24 0 30 -5 38 -37 6 -21 29 -60 51 -87 61 -73 64 -82 62 -178 -2 -81
-1 -88 17 -88 31 0 81 48 81 78 l1 27 24 -30 24 -29 10 28 c6 15 11 31 11 36
0 4 13 21 30 37 17 15 30 38 30 50 0 30 7 29 75 -7 100 -53 135 -28 44 31
-117 74 -200 236 -139 269 32 17 58 3 70 -38 5 -20 10 -45 10 -56 0 -25 37
-84 62 -97 11 -6 31 -8 44 -5 27 7 57 -5 94 -39 46 -42 208 -113 224 -98 3 3
2 26 -1 52 -4 42 -2 49 32 89 45 52 103 83 174 93 33 5 62 16 77 30 21 20 30
21 92 16 61 -6 73 -4 95 13 26 21 27 21 64 2 43 -22 198 -64 322 -86 95 -18
111 -19 111 -8 0 10 -233 97 -330 123 -141 37 -413 35 -460 -5 -8 -7 -51 -32
-95 -56 -98 -52 -145 -86 -145 -105 0 -22 -34 -35 -89 -35 -65 0 -105 31 -103
80 1 40 -8 58 -49 99 -31 32 -31 51 0 51 10 0 47 -16 83 -35 75 -39 178 -71
203 -61 24 9 10 23 -30 30 -43 8 -92 50 -123 105 -28 49 -16 53 49 16 81 -45
243 -70 290 -45 35 19 20 30 -41 30 -33 0 -77 7 -98 15 -46 20 -112 83 -112
107 0 31 38 27 205 -22 175 -51 223 -62 299 -63 61 -2 100 12 83 30 -4 4 -58
10 -120 14 -186 12 -258 36 -282 93 -9 22 -29 43 -57 58 -45 25 -60 48 -31 48
21 0 153 -49 210 -79 21 -10 47 -28 57 -40 15 -16 22 -18 33 -9 8 6 53 14 101
18 48 4 74 8 57 9 -52 2 -227 48 -305 80 -41 17 -76 31 -77 31 -2 0 -3 5 -3
12 0 8 33 9 120 5 66 -3 120 -4 120 -2 0 3 -20 10 -45 16 -96 24 -167 106
-145 165 15 40 39 54 89 52 35 -1 47 3 62 23 l18 24 20 -48 c18 -42 24 -47 52
-47 18 0 75 -20 128 -44 53 -24 115 -50 139 -57 45 -13 70 -4 37 15 -11 6 -35
26 -54 44 -34 33 -34 47 4 54 18 3 20 13 25 111 l5 108 36 -48 c44 -58 63 -95
78 -148 14 -54 36 -84 51 -69 8 8 2 33 -20 94 -17 46 -29 90 -28 99 2 10 39
-17 113 -83 116 -103 145 -124 145 -106 0 17 -211 223 -281 275 -63 46 -86 53
-120 34 -26 -14 -141 -13 -185 1 -19 6 -39 20 -45 31 -9 17 -4 27 26 61 21 22
47 61 58 87 l21 46 6 -38 c14 -79 46 -74 58 9 6 40 11 49 27 49 20 0 32 -26
55 -122 18 -73 50 -48 50 39 0 76 23 87 82 38 l37 -31 21 21 c39 39 180 22
345 -43 l60 -23 6 -175 c6 -175 16 -229 43 -229 7 0 43 -15 80 -33 36 -19 66
-31 66 -27 0 3 -16 22 -36 41 -92 88 -133 225 -103 345 20 78 40 50 44 -62 4
-88 17 -115 96 -193 77 -78 163 -136 237 -163 50 -17 74 -19 201 -15 80 3 156
1 170 -4 13 -6 56 -39 94 -75 38 -36 71 -63 75 -60 3 3 -3 24 -13 46 -10 22
-15 43 -11 47 4 4 24 -1 44 -12 29 -16 45 -37 74 -95 21 -41 39 -88 40 -105 3
-28 1 -30 -32 -29 -19 1 -78 18 -130 38 -124 49 -140 52 -140 33 0 -42 232
-157 515 -256 110 -39 649 -183 790 -211 33 -7 97 -27 141 -46 61 -25 112 -37
200 -48 100 -12 122 -18 136 -36 23 -28 23 -30 -5 -70 -32 -48 -76 -71 -159
-81 -144 -18 -294 -73 -365 -133 -58 -49 -32 -85 32 -46 51 31 197 79 279 91
167 24 200 31 253 51 31 11 75 38 98 59 23 22 49 39 58 39 28 0 47 -53 47
-129 0 -38 3 -76 6 -85 3 -9 25 -21 47 -27 26 -7 58 -27 84 -54 37 -37 43 -48
41 -82 -1 -23 6 -50 15 -64 26 -36 21 -79 -18 -145 -56 -93 -93 -113 -144 -78
l-23 16 24 12 c12 6 24 22 26 34 2 13 12 28 23 35 13 8 19 23 19 49 0 20 5 40
11 44 19 12 4 100 -25 144 -47 72 -112 60 -118 -22 l-3 -39 -40 30 c-22 17
-46 31 -52 31 -21 0 -15 -37 12 -68 14 -17 25 -33 25 -36 0 -16 -97 -4 -129
15 -41 25 -54 16 -49 -37 2 -31 9 -42 31 -52 36 -17 57 -66 57 -132 0 -45 -4
-55 -42 -97 -47 -50 -139 -116 -195 -140 -20 -8 -79 -42 -132 -76 -105 -66
-292 -159 -356 -175 -22 -6 -112 -18 -200 -27 -182 -17 -205 -22 -205 -40 0
-22 38 -28 160 -27 126 1 279 27 372 62 31 11 92 44 135 72 143 94 305 157
402 158 52 0 156 29 245 67 43 18 81 31 84 28 3 -3 0 -53 -6 -111 -12 -112
-40 -194 -66 -194 -27 0 -48 45 -45 97 3 42 1 48 -18 51 -13 2 -38 -12 -68
-38 -45 -39 -48 -40 -66 -24 -28 25 -37 10 -53 -81 -9 -53 -20 -83 -33 -94
-10 -9 -32 -34 -48 -56 -61 -87 -109 -127 -209 -176 -104 -51 -124 -56 -159
-38 -32 16 -116 100 -133 131 -22 43 3 45 45 4 56 -54 80 -42 46 23 -32 62
-180 98 -291 70 -98 -25 -138 -118 -74 -173 29 -24 95 -45 107 -33 3 3 -5 20
-18 38 -21 30 -21 32 -3 27 196 -56 244 -79 244 -115 0 -25 -45 -11 -48 15 -6
39 -35 29 -136 -45 -139 -103 -513 -258 -1021 -423 -384 -124 -652 -179 -925
-189 -154 -5 -185 -8 -185 -21 0 -34 54 -45 210 -44 154 1 316 23 475 64 54
14 78 16 87 8 20 -16 16 -103 -7 -145 -25 -47 -25 -84 -2 -113 l19 -23 16 24
c10 13 17 37 17 53 0 16 12 49 26 74 26 44 26 45 9 83 -10 21 -15 44 -12 52 3
8 55 28 124 47 329 90 693 229 1069 409 174 83 262 110 359 111 101 1 239 48
327 113 16 12 59 57 94 99 70 85 91 99 174 118 74 17 137 50 183 97 66 65 70
80 77 268 7 186 7 188 86 299 40 57 41 73 13 178 -21 76 -53 133 -133 238 -23
29 -40 67 -50 108 -8 34 -26 79 -41 98 -60 79 -182 129 -345 143 -81 6 -111
15 -200 53 -145 63 -216 83 -416 118 -95 17 -206 40 -246 51 -40 11 -107 29
-148 39 -80 22 -178 75 -248 135 -48 41 -78 96 -112 200 -33 103 -59 144 -105
167 -61 31 -75 47 -75 88 0 41 14 60 46 60 24 0 40 15 46 45 3 16 11 19 37 17
27 -2 32 1 27 13 -15 41 55 115 110 115 32 0 33 2 28 29 -5 25 -2 31 22 42 21
10 30 24 36 52 5 22 17 50 27 63 11 14 17 33 14 44 -3 12 2 29 12 40 13 14 16
30 12 59 -4 33 -1 43 19 60 13 12 24 30 24 40 0 11 12 28 28 39 27 20 27 21
10 50 -25 43 -23 68 18 161 l36 83 -21 29 c-27 36 -26 45 4 65 33 22 32 31
-12 76 -20 21 -32 38 -27 38 6 0 21 10 33 21 17 16 22 29 17 50 -7 35 1 59 20
59 18 0 17 20 -1 44 -21 27 -19 72 5 142 21 59 24 93 16 194 -3 30 -5 63 -5
73 -1 19 -44 67 -61 67 -5 0 -10 -9 -10 -20 0 -25 -5 -25 -37 0 -27 21 -43 19
-43 -6 0 -19 -88 -114 -106 -114 -20 0 -44 -29 -44 -53 0 -12 -5 -29 -10 -37
-9 -13 -12 -13 -24 3 -17 22 -26 22 -26 -3 0 -22 -53 -64 -140 -111 -30 -16
-91 -59 -135 -95 -44 -36 -96 -73 -115 -83 -37 -20 -281 -265 -368 -369 -60
-72 -90 -128 -133 -245 -35 -95 -62 -129 -99 -125 -23 3 -25 6 -24 54 2 58 27
117 101 236 58 92 76 113 126 145 25 16 45 39 57 68 13 30 25 45 38 45 25 0
95 61 142 124 21 28 91 107 156 176 167 177 364 449 364 503 0 11 52 72 125
147 69 71 125 133 125 138 0 5 28 45 61 88 156 202 244 391 303 655 39 176 48
284 36 424 -20 230 -55 371 -144 585 -55 133 -62 174 -45 288 28 195 7 560
-38 651 -25 49 -47 60 -73 36 -38 -35 -67 -132 -100 -333 l-12 -73 -88 178
c-127 256 -175 295 -219 177 -53 -141 -16 -322 155 -757 41 -104 74 -201 74
-215 0 -42 -67 -362 -111 -532 -97 -377 -295 -870 -412 -1026 -54 -73 -143
-139 -259 -193 -161 -76 -267 -101 -269 -63 -5 92 24 194 117 404 42 95 84
207 95 248 10 41 35 122 54 180 54 158 91 318 140 605 54 318 65 439 65 710 0
401 -24 642 -90 900 -64 250 -137 451 -232 637 -69 133 -113 188 -152 188 -53
0 -52 -56 3 -365 51 -281 55 -361 42 -790 -18 -575 -28 -727 -62 -910 -55
-288 -115 -502 -179 -630 -73 -146 -187 -331 -230 -375 -106 -107 -311 -158
-461 -114 -104 31 -222 132 -275 235 -38 75 -98 320 -124 509 -20 135 -127
455 -205 611 -42 83 -106 152 -138 147 -21 -3 -22 -7 -20 -98 1 -52 16 -185
33 -295 35 -228 49 -408 32 -419 -16 -10 -61 16 -98 56 -105 110 -199 347
-238 598 -25 156 -35 410 -46 1100 -16 1028 -25 1114 -154 1505 -122 365 -275
658 -448 855 -139 158 -337 340 -369 340 -4 0 -12 -7 -19 -15z m90 -140 c0
-18 31 -43 65 -51 37 -9 194 -164 252 -249 131 -193 355 -684 433 -948 47
-156 40 -187 -45 -208 -70 -18 -70 -18 -55 -204 23 -295 -9 -495 -80 -495 -22
0 -52 -28 -47 -44 2 -6 15 -10 29 -8 32 4 47 -15 54 -71 6 -38 4 -48 -10 -53
-10 -4 -22 -2 -29 5 -19 19 -75 13 -87 -10 -19 -34 5 -52 62 -47 43 5 48 3 48
-15 0 -32 -52 -118 -80 -132 -16 -8 -31 -27 -36 -47 -7 -25 -16 -34 -40 -39
-17 -3 -36 -9 -42 -13 -20 -12 -13 -45 13 -62 14 -9 25 -20 25 -24 0 -4 -27
-38 -60 -75 -51 -57 -73 -95 -56 -95 23 0 141 46 176 68 63 40 68 41 125 26
68 -19 111 -18 119 2 12 30 19 122 12 158 -6 30 -11 36 -31 36 -14 0 -34 9
-45 20 -11 11 -31 20 -45 20 -17 0 -23 4 -19 15 9 22 40 28 79 14 28 -10 37
-11 47 -1 21 21 12 96 -17 147 l-27 46 26 38 c22 31 26 48 25 95 -2 45 2 59
17 70 14 11 20 31 24 78 3 34 10 63 15 63 20 0 25 -104 34 -770 11 -761 14
-803 82 -1063 59 -227 57 -205 20 -197 -35 8 -39 -4 -16 -45 19 -33 19 -64 0
-80 -18 -15 -10 -33 53 -110 25 -30 58 -79 74 -107 17 -29 33 -55 38 -58 11
-7 60 33 60 49 0 7 -14 25 -31 42 -34 32 -89 121 -89 144 0 32 236 -227 276
-303 18 -34 11 -47 -26 -47 -25 0 -29 4 -32 32 -2 20 -13 38 -31 52 l-29 21
-19 -24 c-25 -31 -24 -38 10 -55 16 -9 34 -29 39 -46 6 -16 22 -45 36 -63 29
-38 32 -66 12 -105 -7 -15 -17 -37 -20 -49 -7 -22 -4 -23 37 -23 38 0 46 -3
51 -22 10 -39 7 -146 -5 -154 -19 -11 -63 30 -95 91 -36 69 -88 104 -132 89
-39 -14 -40 -34 0 -34 18 0 43 -3 55 -6 21 -6 22 -7 7 -36 -14 -26 -14 -32 0
-52 19 -29 103 -86 138 -93 19 -4 30 -15 38 -36 11 -33 4 -97 -12 -97 -20 0
-128 113 -138 145 -7 23 -21 37 -43 46 -18 7 -82 63 -143 124 -80 80 -118 126
-137 167 -16 32 -40 65 -55 75 -70 44 -94 89 -52 100 17 5 20 13 18 59 -2 49
1 57 32 89 l35 36 -70 -3 -69 -3 -7 30 c-3 17 -16 50 -28 75 -11 25 -21 60
-21 78 0 49 -15 69 -71 97 -64 33 -79 63 -54 109 18 33 18 34 -3 69 -12 19
-43 54 -69 77 -43 40 -47 42 -59 25 -13 -17 -15 -16 -29 18 -13 32 -13 40 0
78 19 54 14 69 -24 69 -35 0 -38 4 -71 84 -20 50 -32 64 -63 80 -32 15 -38 23
-35 45 2 21 11 29 50 41 34 11 48 20 48 33 0 22 -27 77 -39 77 -4 0 -22 -16
-40 -36 -26 -28 -35 -33 -47 -23 -19 15 -18 72 1 110 26 49 -4 68 -43 26 -11
-12 -28 -39 -37 -60 -15 -37 -15 -38 11 -62 18 -17 27 -36 27 -55 0 -43 -8
-46 -53 -16 -37 24 -44 36 -52 91 -3 17 -10 20 -45 17 -23 -1 -45 3 -49 9 -3
6 -11 61 -16 122 -5 62 -10 123 -11 136 -3 32 24 48 60 35 26 -9 28 -14 31
-67 2 -48 -2 -66 -22 -102 -32 -54 -32 -55 0 -55 36 0 64 18 64 41 0 11 13 32
30 47 29 27 29 28 10 40 -14 8 -20 23 -20 48 0 49 14 71 60 94 22 11 40 27 40
36 0 9 -14 30 -32 47 l-32 32 -6 -25 c-12 -52 -90 -65 -140 -23 l-32 26 -54
-26 c-30 -15 -65 -27 -78 -27 -23 0 -58 33 -69 63 -3 8 -13 4 -30 -11 -14 -13
-33 -22 -44 -20 -10 3 -31 -2 -47 -10 -30 -14 -45 -6 -46 25 0 7 -9 18 -20 25
-19 12 -19 13 2 35 34 36 2 28 -70 -17 -35 -22 -68 -38 -73 -35 -16 10 -10 79
11 112 13 21 32 36 58 44 52 15 85 -1 127 -61 33 -46 65 -64 65 -36 0 20 54
21 199 5 124 -13 219 -1 300 40 69 35 159 114 167 147 7 29 8 29 45 7 27 -16
30 -16 45 -1 17 16 16 21 -11 68 -16 28 -14 51 16 173 38 151 50 282 50 517 0
384 -57 770 -156 1066 -49 147 -255 629 -292 685 -31 47 -26 84 7 54 11 -10
20 -23 20 -30z m-2129 -1318 c35 -30 158 -152 274 -273 324 -340 448 -460 607
-593 139 -115 198 -174 198 -199 0 -5 23 -13 50 -17 36 -5 72 -21 129 -58 43
-29 102 -64 130 -80 84 -45 81 -73 -9 -84 -46 -5 -62 -13 -101 -50 -51 -47
-64 -51 -91 -26 -39 35 -6 93 62 108 38 8 39 35 3 74 -36 39 -67 44 -71 13 -8
-54 -106 -68 -144 -21 -24 29 -14 40 31 33 26 -4 41 -2 46 6 13 21 -21 37 -96
44 -76 7 -118 24 -161 64 -38 35 -36 65 7 99 19 15 35 33 35 40 0 26 -22 23
-56 -6 -57 -51 -137 -39 -179 26 -16 24 -16 25 4 18 36 -11 24 14 -37 75 -45
45 -68 60 -98 65 -56 9 -68 18 -77 59 -6 23 -23 48 -49 71 -24 20 -41 44 -42
57 -1 15 -9 24 -26 28 -21 5 -25 12 -25 46 0 55 -9 64 -62 64 -41 0 -50 4 -86
43 -58 62 -154 213 -178 278 -12 32 -34 70 -50 85 -30 29 -39 64 -16 64 7 0
42 -24 78 -53z m1285 -46 c28 -123 177 -467 335 -776 111 -218 174 -326 238
-410 64 -84 63 -99 -6 -103 -80 -5 -132 23 -189 100 -57 78 -136 232 -180 355
-38 106 -79 187 -129 257 -28 38 -35 58 -35 93 0 28 -11 71 -31 115 -22 51
-28 73 -20 81 6 6 11 24 11 41 0 61 -22 202 -36 229 -8 16 -14 34 -14 40 0 12
31 49 37 43 2 -2 11 -32 19 -65z m1628 -148 c12 -40 26 -205 26 -315 0 -98 -3
-118 -15 -118 -10 0 -15 10 -15 34 0 26 -5 35 -21 39 -17 5 -19 10 -12 29 15
43 -5 296 -26 322 -10 12 -9 15 6 19 36 9 52 7 57 -10z m2124 -395 c53 -58
126 -251 142 -381 5 -45 10 -83 10 -85 0 -1 16 -18 35 -38 26 -26 35 -43 34
-67 0 -32 0 -32 -16 -9 -23 32 -33 27 -33 -17 0 -55 8 -70 45 -85 43 -19 62
-68 35 -94 -17 -16 -24 -46 -21 -82 1 -8 8 0 16 18 18 41 36 37 52 -9 18 -52
15 -98 -7 -126 -11 -14 -20 -34 -20 -44 0 -11 -7 -19 -15 -19 -20 0 -37 -35
-33 -68 3 -30 21 -33 75 -11 18 7 35 10 39 6 17 -16 31 -439 18 -519 -9 -55
-39 -52 -55 5 -9 34 -8 60 5 133 17 96 21 300 7 323 -28 45 -82 -55 -83 -154
0 -49 4 -69 21 -92 24 -32 20 -63 -8 -63 -9 0 -32 11 -51 25 -18 13 -37 22
-41 19 -13 -8 1 -32 21 -37 12 -3 20 -18 25 -45 4 -24 16 -48 31 -61 36 -31
28 -55 -19 -59 -47 -4 -47 -16 -1 -76 41 -54 39 -76 -8 -76 l-33 -1 28 -20
c32 -25 33 -37 7 -86 -24 -45 -25 -63 -5 -89 21 -27 18 -43 -9 -55 -22 -10
-46 -47 -46 -70 0 -5 11 -14 25 -19 19 -7 25 -17 25 -40 0 -41 -27 -51 -51
-19 l-19 24 0 -31 c0 -17 7 -37 15 -44 20 -16 20 -113 1 -168 -8 -22 -26 -57
-40 -79 -33 -49 -53 -129 -71 -283 -10 -92 -19 -131 -34 -151 -31 -41 -148
-281 -241 -492 -45 -103 -87 -186 -93 -184 -6 2 -15 18 -19 35 -10 37 -14 38
-40 15 -25 -23 -23 -34 17 -73 30 -29 37 -32 58 -23 31 14 92 89 112 136 25
61 65 46 65 -24 0 -53 -45 -219 -59 -219 -4 0 -18 11 -31 25 -30 32 -40 32
-40 0 0 -62 48 -120 81 -99 6 3 22 32 36 62 18 42 27 52 34 41 5 -8 9 -22 9
-31 0 -27 56 -84 101 -102 38 -16 43 -15 114 9 40 13 120 45 177 70 57 26 110
49 118 53 17 7 -34 -66 -136 -195 -40 -50 -82 -94 -94 -98 -13 -4 -34 1 -55
14 -19 11 -35 19 -35 18 0 -2 9 -20 19 -41 23 -44 15 -79 -18 -84 -15 -3 -24
4 -32 25 -17 45 -45 55 -75 26 -39 -40 -218 1 -371 84 -50 27 -90 42 -100 39
-14 -6 -14 -8 1 -25 10 -11 60 -45 111 -76 52 -31 99 -63 105 -70 15 -19 4
-35 -24 -35 -26 0 -46 15 -69 53 -31 49 -69 20 -48 -37 26 -67 170 -183 261
-210 101 -30 114 -52 49 -81 -49 -23 -158 -26 -182 -6 -20 16 -62 8 -70 -13
-4 -9 2 -17 15 -22 20 -6 20 -11 13 -114 -7 -117 2 -144 35 -100 21 27 40 19
40 -17 0 -24 2 -25 40 -19 46 7 48 3 24 -67 -20 -60 -46 -79 -96 -71 -34 6
-38 4 -38 -14 0 -12 -22 -47 -50 -78 -37 -42 -50 -65 -50 -88 0 -17 -9 -48
-20 -69 -24 -44 -25 -70 -5 -87 8 -7 15 -19 15 -26 0 -26 -29 -14 -56 24 -43
58 -49 60 -142 60 -48 0 -121 8 -162 17 -95 22 -124 38 -52 29 47 -5 54 -4 58
13 4 15 12 19 31 15 14 -3 43 4 68 17 31 15 64 22 124 24 44 1 81 4 81 7 0 9
-85 90 -95 90 -5 0 -19 -9 -31 -21 l-22 -21 -12 21 c-9 18 -7 22 15 31 31 12
28 32 -6 42 -13 3 -37 10 -53 15 -48 13 -71 55 -71 126 l0 62 44 -2 c35 -2 48
2 59 18 7 11 31 27 53 36 36 14 39 18 39 54 0 28 4 39 15 39 21 0 19 14 -6 36
-40 36 -108 201 -93 225 9 15 -15 47 -65 83 -27 20 -53 36 -58 36 -5 0 -8 -13
-5 -30 2 -16 2 -36 -2 -45 -7 -20 -36 -8 -36 15 0 23 -26 44 -46 36 -9 -3 10
18 41 48 72 68 72 90 0 94 -27 2 -55 8 -62 14 -7 6 -13 32 -13 60 l0 50 33 -6
c86 -18 97 -18 92 -5 -8 21 -89 69 -117 69 -13 0 -33 -7 -44 -15 -31 -24 -47
-17 -79 33 -22 35 -45 54 -88 76 -39 20 -55 32 -48 39 16 16 119 21 161 7 21
-7 64 -13 96 -14 58 -1 59 0 69 31 l11 33 32 -32 c24 -25 34 -30 44 -20 29 29
-49 105 -102 100 -16 -2 -30 -13 -38 -30 -21 -45 -63 -30 -82 28 -12 35 -120
154 -140 154 -23 0 -7 -27 36 -65 49 -43 60 -79 34 -110 -13 -16 -76 -20 -96
-7 -23 15 -34 53 -34 117 0 63 2 67 36 99 43 39 38 60 -10 50 l-33 -6 -6 54
c-10 77 -8 296 1 302 5 3 34 -16 65 -43 31 -26 95 -69 143 -95 95 -54 66 -51
269 -31 33 3 66 2 74 -4 23 -15 -2 -59 -44 -77 -46 -19 -174 -18 -272 2 -43 9
-88 18 -100 20 -16 3 -32 23 -53 65 -34 67 -55 70 -45 5 10 -56 26 -83 79
-136 l46 -44 -28 -29 -27 -30 39 6 c21 4 49 15 61 27 31 29 57 27 49 -5 -8
-33 11 -33 42 0 20 22 32 25 88 25 44 0 69 -5 80 -15 32 -32 113 -3 101 36 -8
23 27 39 86 39 27 0 45 6 56 20 10 11 26 20 36 20 12 0 25 16 39 48 26 60 23
57 71 57 39 0 42 2 45 30 5 43 16 52 77 60 66 8 84 27 115 121 38 114 5 123
-50 14 -34 -67 -43 -75 -92 -84 -21 -4 -50 -17 -65 -30 -35 -29 -87 -56 -108
-56 -27 0 -55 -38 -55 -74 0 -26 -5 -36 -21 -41 -28 -9 -84 2 -99 20 -16 20 4
43 80 95 72 49 119 101 166 186 21 38 66 114 100 169 35 55 77 136 94 179 67
166 136 491 176 828 16 137 18 146 35 135 14 -9 21 -9 31 1 17 17 13 81 -6
100 -13 13 -17 13 -32 1 -19 -15 -19 -31 6 326 18 260 9 612 -21 765 -6 30
-21 89 -34 130 -23 70 -55 229 -55 271 0 25 12 24 38 -3z m-3598 -339 c6 -23
9 -43 7 -45 -9 -9 -28 26 -34 62 -8 50 13 37 27 -17z m-4626 -105 c18 -7 125
-150 178 -239 101 -168 343 -711 373 -836 8 -35 15 -96 15 -136 0 -114 -17
-134 -50 -58 -14 32 -25 45 -39 45 -23 0 -35 30 -26 61 6 17 13 20 36 15 35
-7 35 -3 8 68 -22 59 -30 68 -63 70 -19 1 -21 6 -18 67 3 61 2 67 -22 83 -16
10 -26 26 -26 41 0 27 -71 204 -82 205 -10 0 -28 -62 -30 -104 -1 -24 6 -44
19 -59 32 -35 43 -62 43 -111 0 -57 -8 -76 -31 -76 -17 0 -18 6 -13 59 6 53 5
60 -15 70 -44 24 -68 111 -50 181 11 42 10 48 -14 84 -22 31 -25 45 -20 81 l5
43 -47 21 -48 21 7 51 c7 50 6 50 -39 95 -71 69 -114 190 -86 243 13 23 13 23
35 15z m3445 -33 c32 -17 103 -58 157 -92 124 -78 235 -131 344 -162 148 -43
240 -89 240 -119 0 -16 -125 -4 -154 16 -15 9 -42 15 -69 14 -34 -2 -54 5 -92
30 -27 18 -60 32 -74 32 -39 0 -192 72 -263 123 -106 75 -200 187 -158 187 6
0 37 -13 69 -29z m1301 -86 c35 -74 37 -85 11 -85 -32 0 -91 118 -77 155 10
26 31 4 66 -70z m-554 -104 c29 -18 84 -79 84 -94 0 -19 -33 -2 -79 39 -68 61
-71 95 -5 55z m1768 -80 c11 -17 -16 -71 -37 -76 -26 -7 -99 17 -105 33 -2 6
25 20 60 31 74 23 75 24 82 12z m-7591 -63 c84 -128 164 -313 257 -598 37
-113 93 -263 125 -335 31 -71 88 -213 127 -315 77 -203 156 -376 250 -545 53
-95 78 -126 182 -231 262 -261 450 -362 656 -352 67 4 101 11 162 37 104 44
191 101 247 163 74 83 135 142 154 153 15 8 20 28 26 94 6 70 11 86 30 102 33
27 58 24 73 -8 9 -19 26 -31 52 -38 22 -7 42 -18 44 -25 12 -36 -97 -57 -117
-22 -10 16 -12 16 -25 -2 -15 -18 -36 -99 -36 -135 0 -10 -13 -38 -30 -62 -33
-49 -36 -62 -17 -78 8 -6 19 -29 26 -51 14 -47 37 -60 111 -60 27 0 61 -5 75
-10 36 -14 29 -42 -13 -55 -36 -10 -38 -15 -18 -53 7 -15 17 -37 20 -49 7 -20
4 -23 -23 -23 -38 0 -110 54 -136 103 -33 61 -60 57 -76 -13 -12 -53 9 -95 42
-85 26 9 96 -33 142 -84 40 -45 45 -65 22 -91 -19 -21 -11 -44 21 -65 32 -20
30 -37 -6 -77 -35 -37 -34 -54 2 -50 52 5 62 -59 17 -116 -19 -25 -20 -27 -2
-40 10 -7 31 -12 48 -10 38 4 43 21 45 173 1 66 3 116 5 110 2 -5 17 -55 35
-109 17 -54 51 -144 76 -198 25 -55 44 -102 41 -105 -3 -3 -28 0 -55 7 -43 10
-51 16 -59 43 l-9 32 -37 -37 c-20 -20 -37 -44 -37 -53 0 -15 7 -17 44 -13 51
6 66 -4 66 -43 0 -42 76 -184 130 -241 45 -48 49 -51 50 -28 0 13 -13 37 -29
55 -35 35 -111 183 -111 214 0 29 10 27 61 -16 96 -82 124 -127 115 -185 l-7
-40 34 21 c41 25 46 22 111 -72 57 -80 139 -163 221 -222 65 -47 196 -115 260
-135 107 -33 255 -134 255 -172 0 -9 -13 -21 -30 -27 -39 -13 -38 -25 4 -67
41 -41 66 -44 66 -9 0 14 3 25 8 25 30 0 219 -162 253 -217 22 -35 22 -36 4
-49 -10 -8 -34 -14 -53 -14 -32 0 -34 2 -30 30 6 43 -7 46 -43 11 -17 -17 -37
-31 -44 -31 -8 0 -34 26 -59 58 -46 58 -83 88 -94 77 -3 -3 2 -19 11 -34 21
-36 22 -60 2 -67 -28 -11 -64 23 -67 63 -3 36 -4 37 -63 49 -33 7 -63 13 -68
13 -4 1 -4 -11 -1 -26 6 -23 5 -25 -12 -18 -10 4 -38 12 -61 17 -54 12 -59 39
-11 53 20 6 34 18 36 29 4 16 0 18 -26 13 -26 -5 -36 0 -75 38 -53 54 -74 58
-46 10 19 -32 19 -55 -1 -55 -22 0 -71 55 -80 90 -6 21 -22 48 -37 60 -24 19
-27 19 -44 4 -25 -23 -60 -12 -108 34 -35 33 -40 43 -39 82 0 37 -4 48 -31 72
-40 36 -55 28 -36 -19 27 -64 17 -68 -39 -14 -58 54 -76 61 -96 36 -10 -12 -8
-21 10 -50 26 -42 21 -72 -9 -56 -26 14 -117 139 -142 195 -23 53 -19 78 19
119 21 22 24 30 13 36 -16 10 -63 0 -114 -25 -33 -16 -39 -16 -51 -3 -52 54
-206 235 -206 241 0 5 17 5 39 2 59 -9 60 10 2 68 -52 52 -74 57 -79 19 -4
-23 -55 -61 -83 -61 -20 0 -29 20 -29 66 0 39 -15 73 -39 91 -13 9 -14 14 -3
25 10 10 23 7 69 -17 31 -17 60 -31 65 -33 12 -5 10 86 -2 93 -6 4 -17 1 -25
-5 -19 -15 -34 -5 -51 35 -7 18 -29 54 -49 80 -34 44 -35 48 -20 65 15 17 15
19 -5 38 -27 25 -78 47 -87 38 -4 -3 2 -12 12 -20 14 -10 17 -22 12 -56 -7
-54 -1 -70 28 -70 13 0 27 -5 30 -10 10 -16 -16 -160 -29 -160 -12 0 -36 33
-91 130 -44 78 -72 110 -96 110 -23 0 -76 45 -95 81 -14 29 -14 29 16 29 25 0
32 -6 44 -35 15 -34 26 -40 71 -35 24 2 55 28 55 46 0 7 -9 18 -20 24 -22 12
-27 49 -7 51 27 3 43 -4 70 -29 27 -26 27 -26 27 -3 0 67 -179 121 -242 72
-24 -19 -25 -19 -104 -1 -43 11 -94 19 -112 20 -51 0 -91 26 -92 58 0 16 32
15 99 -3 29 -7 88 -17 130 -20 68 -6 78 -5 100 14 14 12 50 29 80 37 31 9 59
18 63 21 5 2 -2 22 -14 43 -27 46 -23 53 48 78 40 15 51 24 60 51 8 25 12 29
17 17 10 -25 36 -19 68 15 21 23 29 41 29 69 0 29 4 39 20 43 12 3 20 14 20
26 0 40 -49 21 -148 -57 -57 -44 -111 -69 -172 -77 -61 -8 -78 -19 -61 -39 8
-9 23 -16 34 -16 11 0 17 -3 14 -6 -4 -4 -42 -6 -86 -5 -84 2 -151 -6 -151
-19 0 -12 49 -27 134 -40 100 -17 110 -30 55 -69 -49 -36 -59 -38 -59 -12 0
27 -18 31 -141 31 -137 0 -149 5 -149 68 0 28 -6 57 -15 68 -15 19 -15 19 -30
0 -8 -11 -15 -30 -15 -43 0 -50 -63 -35 -75 17 -5 23 -12 30 -31 30 -17 0 -28
9 -40 33 -26 52 -45 67 -81 67 -40 0 -42 12 -8 38 l26 20 -67 7 c-42 5 -72 14
-80 24 -8 9 -50 58 -94 110 -45 51 -89 110 -100 131 -11 21 -29 41 -40 45 -19
6 -34 38 -30 66 5 32 -1 46 -24 59 -14 7 -32 32 -41 56 -10 28 -28 50 -50 64
-37 23 -45 37 -45 83 0 21 -12 47 -35 76 -19 24 -35 46 -35 48 0 2 14 22 31
43 27 33 30 42 19 55 -7 8 -25 15 -41 15 -16 0 -37 9 -47 21 -13 13 -29 19
-48 17 -25 -3 -29 1 -32 25 -2 19 3 33 14 41 12 10 17 27 17 70 0 66 -4 72
-33 56 -30 -16 -42 -57 -35 -120 10 -92 -23 -106 -68 -29 -27 46 -20 68 48
158 l55 74 -44 47 c-45 48 -66 98 -66 158 0 38 -21 92 -50 129 -17 22 -19 35
-14 70 6 39 2 50 -30 102 -20 33 -36 68 -36 78 0 11 -11 48 -25 83 -26 67 -45
96 -45 70 0 -28 -21 -90 -30 -90 -13 0 -30 67 -30 116 0 28 6 46 20 59 11 10
20 21 20 25 0 5 -17 29 -38 54 -41 49 -72 130 -72 188 0 67 27 65 73 -4z
m6188 -2 c24 -51 -20 -180 -51 -150 -16 16 -24 114 -11 147 13 34 47 36 62 3z
m-181 -12 c43 -29 64 -64 38 -64 -16 0 -108 60 -108 71 0 15 44 10 70 -7z
m-305 -108 c52 -22 43 -38 -11 -21 -55 16 -79 35 -46 35 13 0 38 -7 57 -14z
m153 -26 c83 -44 93 -65 26 -57 -49 5 -103 45 -90 66 10 15 21 14 64 -9z m428
-26 c37 -18 67 -52 58 -66 -18 -29 -114 23 -114 63 0 23 12 24 56 3z m162 4
c18 -18 15 -123 -4 -139 -22 -18 -48 0 -52 35 -3 21 2 29 17 33 27 7 27 20 1
28 -19 6 -27 35 -13 48 10 11 38 8 51 -5z m-388 -27 c0 -14 -41 -41 -62 -41
-26 0 -33 21 -13 37 21 15 75 18 75 4z m543 -13 c14 -7 17 -19 15 -56 -3 -44
-5 -47 -28 -44 -38 6 -70 41 -70 77 0 17 3 35 6 38 8 7 49 -1 77 -15z m146
-24 c42 -54 37 -164 -9 -164 -38 0 -60 35 -60 96 0 91 29 119 69 68z m4050
-115 c22 -57 60 -153 85 -213 50 -116 60 -181 37 -225 -17 -30 -27 -15 -36 50
-8 55 -26 86 -45 74 -8 -5 -11 -22 -8 -50 5 -42 13 -60 58 -141 26 -46 22 -87
-6 -63 -39 32 -115 223 -154 389 -25 105 -30 253 -10 290 10 20 14 21 27 8 8
-8 31 -62 52 -119z m294 85 c22 -68 4 -703 -23 -791 l-8 -28 -1 29 c-2 55 -21
13 -33 -71 -9 -65 -9 -89 1 -121 12 -35 11 -46 -3 -84 -10 -25 -16 -64 -14
-89 3 -39 6 -44 26 -42 28 3 28 -6 -3 -51 -13 -20 -22 -42 -19 -50 10 -25 -32
-56 -76 -56 -44 0 -55 -21 -21 -39 28 -16 32 -37 20 -110 -28 -171 -68 -287
-95 -277 -9 4 -14 -1 -14 -15 0 -12 -8 -34 -17 -50 -16 -28 -16 -29 7 -54 l25
-26 -23 -39 c-17 -30 -22 -55 -22 -104 0 -67 -10 -83 -30 -46 -17 32 -30 23
-30 -19 0 -21 -18 -110 -40 -199 -22 -88 -40 -167 -40 -176 0 -20 -10 -20 -36
-1 -35 26 -41 18 -49 -62 -7 -76 -37 -177 -56 -188 -5 -4 -13 4 -17 15 l-8 22
-29 -24 c-28 -25 -29 -34 -3 -70 13 -19 -1 -78 -28 -113 -14 -19 -16 -19 -45
-2 -55 31 -92 16 -83 -33 4 -17 0 -31 -10 -39 -25 -21 -19 -30 22 -33 45 -4
48 -22 9 -52 -22 -16 -44 -21 -104 -22 -55 -1 -80 -6 -92 -18 -14 -15 -14 -18
-1 -26 8 -5 34 -10 57 -10 37 0 43 -3 49 -24 10 -40 -2 -46 -87 -46 l-81 0 31
-26 c22 -18 31 -35 31 -55 0 -25 -5 -30 -31 -36 -24 -4 -35 -15 -46 -41 -8
-20 -35 -60 -59 -90 -43 -52 -57 -92 -32 -92 6 0 33 18 60 41 26 22 48 37 48
34 0 -29 -62 -101 -107 -124 -44 -22 -57 -14 -92 56 l-32 66 -45 -51 c-25 -29
-52 -52 -59 -52 -7 0 -25 19 -38 43 -14 24 -33 50 -42 57 -14 11 -17 10 -22
-8 -3 -12 -11 -22 -19 -22 -33 0 -46 86 -17 115 22 23 92 15 129 -14 15 -11
40 -21 55 -21 29 0 38 13 19 25 -17 10 -11 55 12 88 37 55 131 148 171 168 21
11 35 24 32 29 -11 17 15 58 98 159 47 57 122 156 165 220 44 64 92 127 106
140 21 20 26 34 26 72 0 40 6 55 45 105 25 32 50 75 55 96 6 21 15 56 20 78
14 52 46 74 94 64 32 -6 36 -4 36 15 0 13 -10 26 -24 33 -14 6 -27 16 -30 23
-14 39 56 223 108 282 34 39 38 49 37 94 0 28 -3 55 -7 60 -11 19 18 39 57 39
22 0 39 3 39 7 0 3 -12 22 -26 40 -22 29 -25 42 -21 76 10 72 135 613 151 652
22 52 97 607 112 823 7 105 18 125 37 66z m-4925 -2 c4 -24 -7 -29 -26 -10
-18 18 -15 40 6 36 9 -2 18 -13 20 -26z m416 -95 c19 -26 19 -28 3 -44 -34
-35 -102 23 -84 72 9 21 57 4 81 -28z m-4245 -19 c37 -117 75 -347 70 -425 -4
-46 -2 -53 16 -55 26 -4 58 -83 101 -256 37 -144 41 -182 22 -211 -9 -16 -6
-25 24 -62 45 -56 61 -87 88 -177 14 -45 21 -90 18 -118 -3 -41 0 -50 28 -78
35 -35 74 -130 74 -181 0 -26 11 -48 48 -92 85 -102 87 -118 19 -149 -23 -10
-43 -27 -45 -36 -3 -16 5 -18 60 -18 105 0 137 -42 78 -102 -16 -16 -30 -31
-30 -33 0 -1 20 0 45 3 45 5 45 4 45 -27 0 -27 6 -34 44 -52 50 -23 107 -90
155 -183 33 -63 37 -86 20 -115 -15 -23 -3 -90 17 -98 8 -3 23 2 33 11 17 15
21 14 60 -29 22 -24 51 -65 63 -90 21 -44 22 -46 5 -75 l-18 -30 33 0 c72 0
153 -91 167 -188 6 -44 7 -45 58 -62 86 -28 91 -36 46 -83 l-38 -39 47 4 c71
8 113 -17 219 -128 129 -133 247 -247 354 -339 110 -95 235 -215 235 -226 0
-5 -13 -15 -29 -23 -31 -16 -41 -34 -41 -72 0 -33 -20 -39 -65 -20 -47 20 -44
43 13 74 64 36 71 92 10 92 -22 0 -42 -12 -76 -45 -57 -57 -77 -56 -77 4 0 33
-5 47 -24 62 -13 10 -31 19 -41 19 -16 0 -14 8 16 51 53 79 45 108 -25 89 -46
-12 -54 -21 -55 -63 -1 -39 -17 -43 -52 -14 -16 13 -46 27 -66 31 -22 4 -45
17 -58 33 -26 33 -19 40 18 17 26 -15 35 -15 60 -5 40 17 76 56 69 75 -7 18
-50 31 -72 22 -12 -4 -15 -15 -10 -43 l6 -38 -31 35 c-34 39 -54 97 -44 134 8
32 -10 41 -48 22 -52 -27 -86 -19 -140 32 -21 19 -28 35 -28 64 0 28 -8 46
-31 73 -47 54 -106 44 -64 -11 18 -23 19 -56 3 -72 -17 -17 -28 -15 -28 6 0
16 -11 36 -53 95 -18 25 -18 27 2 73 12 25 21 50 21 54 0 4 -15 11 -34 14 -31
6 -34 10 -33 40 1 22 -9 49 -26 75 -34 51 -57 54 -57 8 0 -37 -15 -57 -42 -57
-22 0 -22 -5 2 64 21 61 18 82 -10 91 -27 9 -76 68 -106 128 -35 68 -52 87
-82 87 -23 0 -24 3 -19 40 5 38 3 41 -26 54 -39 16 -55 35 -94 106 -16 30 -44
79 -63 108 -31 49 -32 53 -17 70 23 25 22 29 -13 47 -44 23 -78 19 -92 -10 -6
-14 -15 -25 -19 -25 -16 0 -22 51 -9 74 10 20 7 39 -23 127 -39 116 -90 231
-114 254 -14 14 -17 14 -34 -1 -25 -22 -24 -44 6 -144 28 -92 48 -130 70 -130
21 0 19 9 -14 92 -16 40 -33 90 -39 111 -18 66 4 39 38 -45 26 -66 34 -100 36
-163 2 -86 9 -108 93 -315 28 -68 50 -129 48 -134 -9 -28 -258 485 -277 570
-6 27 -22 78 -34 114 -30 83 -48 198 -44 275 l3 60 33 -65 c24 -49 32 -78 32
-118 0 -46 3 -53 18 -50 12 2 18 14 20 41 3 37 4 38 38 31 30 -5 34 -4 34 15
0 14 -8 23 -25 27 -49 12 -109 122 -181 328 -71 202 -99 360 -73 408 9 17 8
23 -6 30 -11 7 -15 17 -11 34 5 17 -2 32 -24 57 -42 49 -48 71 -60 225 -13
158 -25 220 -47 244 -15 17 -15 18 0 18 30 0 38 36 31 125 -7 90 5 115 25 53z
m517 -13 c19 -46 19 -194 -1 -242 -11 -25 -15 -72 -15 -162 0 -69 -4 -131 -8
-137 -4 -6 -19 -14 -34 -18 -35 -8 -35 -22 -2 -52 32 -31 32 -91 -1 -87 -34 4
-65 -7 -65 -22 0 -9 15 -28 33 -44 l32 -30 -29 -30 c-17 -17 -37 -31 -47 -31
-12 0 -21 -14 -30 -50 -15 -58 -24 -63 -33 -19 -11 57 -6 125 15 205 72 275
92 365 109 504 28 214 35 250 51 250 6 0 17 -16 25 -35z m3914 -50 c21 -22 1
-49 -37 -53 -35 -4 -103 22 -103 38 0 18 62 40 95 35 16 -3 36 -12 45 -20z
m-5889 -61 c40 -89 72 -268 74 -413 2 -130 3 -135 27 -155 39 -32 46 -54 54
-161 4 -70 14 -117 31 -158 25 -62 73 -230 73 -260 0 -9 23 -66 51 -125 28
-59 64 -134 79 -167 38 -80 80 -118 186 -170 l89 -44 -63 0 c-67 -1 -102 -13
-102 -35 0 -17 22 -26 61 -26 35 0 69 -16 69 -32 0 -20 -32 -48 -54 -48 -12 0
-41 14 -65 30 -29 20 -56 30 -81 30 -20 0 -40 3 -43 6 -8 9 10 43 41 76 37 40
24 58 -41 58 -72 0 -86 16 -62 70 20 45 16 66 -19 81 -20 9 -29 7 -53 -11 -36
-26 -91 -20 -129 14 -45 40 -36 51 40 51 85 0 96 11 78 82 -16 60 -99 233
-112 233 -6 0 -10 -15 -10 -34 0 -41 -15 -86 -30 -86 -29 0 -69 121 -90 273
-15 106 -9 140 30 189 38 46 38 63 0 76 -18 7 -31 20 -34 34 -15 68 -33 668
-20 668 3 0 14 -21 25 -46z m-781 -24 c0 -10 -6 -20 -12 -23 -21 -7 -38 4 -38
23 0 10 6 20 13 23 20 7 37 -4 37 -23z m-4 -105 c3 -14 3 -51 -1 -83 l-8 -57
-13 50 c-18 68 -18 115 1 115 8 0 17 -11 21 -25z m6843 -34 c22 -22 18 -56 -6
-66 -45 -16 -85 44 -48 72 25 17 31 17 54 -6z m-4939 -28 c0 -21 11 -92 25
-158 30 -145 30 -145 7 -145 -28 0 -45 47 -46 125 -1 62 -4 73 -29 97 -32 32
-35 70 -7 98 32 32 50 26 50 -17z m5106 -58 c11 -43 -4 -73 -46 -95 -47 -24
-73 -25 -90 -5 -21 26 -3 64 47 95 58 37 81 38 89 5z m-6926 -115 c6 -12 10
-33 8 -48 -2 -21 -8 -27 -28 -27 -21 0 -26 5 -28 33 -2 19 -1 40 2 48 8 21 34
17 46 -6z m7014 -37 c9 -21 -39 -92 -76 -113 -25 -14 -29 -13 -52 9 -15 14
-26 32 -26 41 0 53 137 108 154 63z m3001 -108 c4 -46 4 -101 1 -121 -9 -45
-26 -84 -39 -84 -11 0 -6 259 6 278 18 26 25 9 32 -73z m-8003 11 c15 -17 28
-35 28 -40 0 -12 -59 1 -87 19 -22 15 -31 53 -17 68 10 10 46 -13 76 -47z
m-1960 -43 c10 -9 18 -24 18 -34 0 -24 -21 -69 -32 -69 -20 0 -38 97 -21 113
9 10 15 9 35 -10z m7006 1 c26 -18 52 -65 52 -94 0 -16 -6 -20 -35 -20 -33 0
-35 2 -35 33 0 18 -7 42 -15 53 -30 40 -10 58 33 28z m1067 -34 c21 -29 38
-65 40 -84 2 -19 11 -46 20 -60 10 -14 28 -81 42 -148 13 -67 33 -136 44 -154
l20 -32 -35 -34 c-35 -33 -58 -88 -37 -88 6 0 11 5 11 10 0 6 9 10 20 10 24 0
62 -57 54 -82 -3 -10 4 -26 15 -37 16 -16 21 -34 21 -76 0 -55 -6 -65 -27 -44
-35 35 -43 -44 -16 -147 15 -56 16 -70 3 -111 -18 -63 -24 -134 -15 -189 15
-106 43 -22 59 180 l12 151 13 -55 c23 -100 24 -153 6 -215 -22 -79 -57 -146
-95 -183 -40 -41 -41 -66 0 -57 23 5 30 3 30 -9 0 -19 -30 -36 -64 -36 -14 0
-26 -4 -26 -10 0 -14 35 -30 65 -30 20 0 29 -8 41 -35 7 -19 14 -46 14 -60 0
-22 -4 -25 -34 -25 -42 0 -46 -11 -46 -142 0 -105 -4 -113 -53 -110 -25 2 -31
-4 -55 -55 -18 -40 -26 -75 -27 -113 0 -69 16 -72 47 -10 30 59 55 64 64 13
10 -55 19 -69 72 -104 56 -39 64 -49 50 -66 -25 -30 -98 2 -98 42 0 26 -21 16
-34 -17 -8 -18 -19 -60 -26 -92 -15 -71 -70 -226 -105 -296 -16 -32 -40 -59
-65 -75 -44 -28 -54 -63 -20 -72 25 -7 26 -34 1 -106 -42 -122 -148 -297 -180
-297 -5 0 -12 12 -15 26 -12 45 -38 24 -86 -68 -25 -49 -54 -96 -65 -107 -26
-23 -267 -94 -321 -93 -53 0 -116 28 -172 75 -40 33 -47 36 -88 30 -39 -5 -44
-4 -44 14 0 10 7 28 15 39 21 28 19 54 -4 54 -11 0 -23 -4 -26 -10 -12 -20
-65 -11 -90 16 -18 20 -25 39 -27 82 -2 43 -7 58 -19 60 -11 2 -19 -6 -23 -22
-5 -19 -14 -25 -39 -28 -26 -2 -35 -10 -51 -43 -19 -38 -20 -38 -27 -15 -4 14
-10 42 -14 62 -3 21 -17 50 -30 64 -14 15 -25 37 -25 49 0 13 -9 33 -19 46
-17 21 -27 24 -80 22 -57 -2 -61 -1 -51 16 13 25 32 31 91 31 l50 0 -7 38 -6
37 21 -20 c13 -13 25 -42 31 -75 12 -74 27 -122 44 -145 12 -17 16 -17 31 -5
25 20 15 63 -46 201 -40 90 -57 119 -73 121 -24 4 -73 79 -83 128 l-6 35 26
-30 c21 -25 28 -28 39 -17 11 11 8 18 -18 40 -17 15 -38 32 -48 37 -20 12 -35
70 -36 140 -1 70 -15 124 -39 146 -45 42 -119 210 -136 306 -7 47 -26 68 -51
59 -14 -6 -16 -17 -10 -76 4 -45 2 -71 -5 -75 -16 -11 -58 35 -71 77 -10 35
-9 40 10 54 32 22 27 32 -23 45 -25 6 -50 19 -55 28 -9 18 9 63 52 130 25 39
30 120 9 145 -13 16 -61 23 -61 9 0 -5 9 -19 20 -33 11 -14 20 -29 20 -35 0
-5 -19 -28 -42 -52 l-42 -42 -19 52 c-34 94 -38 114 -27 141 5 14 16 26 24 26
8 0 18 5 21 10 10 17 -16 41 -36 35 -22 -7 -79 20 -79 38 0 7 9 18 20 25 29
18 25 30 -12 34 -29 3 -33 7 -39 38 -11 69 -66 156 -199 315 -80 95 -118 155
-127 195 -4 23 -2 30 10 30 21 0 164 -154 289 -311 248 -311 417 -632 760
-1444 77 -181 160 -370 186 -418 79 -151 173 -219 329 -237 98 -11 294 -12
333 -1 17 5 36 27 60 71 20 36 59 99 86 140 28 41 60 93 72 115 33 65 128 294
151 365 12 36 25 71 30 79 22 35 48 -39 30 -87 -6 -15 -20 -37 -32 -50 -22
-23 -22 -24 -3 -38 34 -25 58 -16 113 42 29 31 53 59 53 63 -1 19 -21 32 -46
29 -27 -3 -29 0 -32 32 -6 80 -12 100 -33 100 -24 0 -23 7 27 210 18 74 44
195 58 269 27 138 35 157 73 172 l23 8 -20 34 c-17 29 -19 41 -10 83 5 27 13
182 16 344 6 250 4 310 -10 391 -9 53 -25 220 -36 370 -11 151 -25 310 -30
354 -11 88 -12 105 -6 105 2 0 21 -23 41 -50z m-6230 -44 c19 -44 31 -166 17
-166 -16 0 -44 79 -49 143 -7 66 9 78 32 23z m131 -1 c33 -23 57 -80 44 -105
-14 -27 -70 -27 -94 -1 -31 35 -18 121 18 121 6 0 21 -7 32 -15z m5204 -19 c0
-14 -4 -28 -10 -31 -6 -4 -10 7 -10 24 0 17 5 31 10 31 6 0 10 -11 10 -24z
m3776 -11 c7 -18 -12 -45 -32 -45 -14 0 -20 41 -7 53 11 12 33 7 39 -8z
m-3846 -79 c19 -7 36 -20 38 -30 4 -19 -44 -106 -58 -106 -5 0 -16 13 -25 30
-9 16 -30 36 -48 43 -39 17 -61 42 -53 62 7 19 95 19 146 1z m3883 -45 c24
-41 22 -64 -3 -56 -45 14 -34 -43 24 -122 13 -18 29 -60 35 -94 6 -34 18 -73
27 -86 15 -24 15 -26 -12 -54 l-28 -30 28 -23 c31 -24 29 -46 -4 -46 -28 0
-40 31 -40 103 0 43 -7 82 -22 118 -30 76 -38 80 -38 23 0 -82 -29 -359 -46
-442 -18 -91 -43 -152 -80 -195 -24 -29 -26 -37 -21 -94 5 -50 3 -64 -9 -71
-9 -5 -22 -34 -29 -66 -13 -54 -54 -138 -75 -151 -16 -10 -13 6 35 183 74 277
108 462 145 777 40 343 63 410 113 326z m-8997 -63 c-4 -22 -9 -45 -12 -50
-10 -16 -35 -7 -46 17 -16 36 3 75 38 75 26 0 26 -2 20 -42z m7948 6 c21 -20
20 -37 -3 -65 -16 -20 -23 -22 -38 -13 -34 21 -25 94 13 94 7 0 20 -7 28 -16z
m-8060 -26 c14 -67 19 -188 9 -188 -12 0 -53 142 -53 182 0 49 34 53 44 6z
m5346 -55 c0 -45 -22 -86 -54 -101 -23 -10 -29 -9 -46 8 -11 11 -20 25 -20 31
0 24 34 81 63 105 29 25 32 25 44 8 7 -10 13 -33 13 -51z m-5174 -9 c23 -56
18 -114 -13 -146 l-27 -28 22 -16 c44 -30 18 -106 -40 -120 -23 -5 -28 -2 -34
21 -4 15 -7 73 -8 130 -1 100 0 104 27 129 15 14 27 34 27 44 0 44 25 36 46
-14z m5250 -80 c-9 -101 -30 -154 -62 -154 -51 0 -52 71 -2 117 26 23 48 66
48 93 0 11 5 20 11 20 8 0 10 -22 5 -76z m-7112 41 c18 -28 21 -81 5 -90 -22
-14 -86 72 -75 101 9 23 52 17 70 -11z m9732 -41 c7 -27 -7 -50 -25 -40 -6 4
-11 20 -11 37 0 37 27 40 36 3z m-51 -104 c9 -28 -11 -83 -40 -110 -31 -29
-40 -21 -27 22 6 18 13 50 17 71 4 27 11 37 25 37 10 0 22 -9 25 -20z m-9590
-112 c0 -52 -3 -63 -18 -66 -35 -7 -61 103 -36 150 l11 20 21 -21 c18 -17 22
-33 22 -83z m7105 40 c25 -41 26 -94 3 -107 -24 -13 -71 13 -79 44 -6 25 28
95 47 95 5 0 18 -15 29 -32z m-5266 -57 c20 -44 18 -74 -5 -79 -19 -3 -29 24
-29 81 0 48 12 47 34 -2z m8676 -11 c0 -10 -4 -22 -10 -25 -6 -4 -10 7 -10 25
0 18 4 29 10 25 6 -3 10 -15 10 -25z m-9985 -45 c0 -34 -23 -50 -57 -42 -45
12 -48 70 -5 87 31 12 62 -11 62 -45z m-437 -10 c7 -14 12 -31 12 -38 -1 -17
-40 32 -40 49 0 23 16 16 28 -11z m10672 -105 c0 -14 -6 -34 -13 -44 -13 -18
-14 -18 -21 -1 -4 10 -4 39 0 63 6 41 8 44 20 27 8 -10 14 -31 14 -45z
m-10707 18 c20 -15 57 -90 50 -101 -6 -10 -51 26 -79 65 -32 43 -13 66 29 36z
m9461 -14 c7 -19 -2 -80 -16 -106 -14 -27 -36 -21 -54 15 -9 17 -28 44 -42 59
-27 29 -24 33 28 41 55 9 78 7 84 -9z m-2305 -20 c12 -11 12 -18 3 -39 -6 -14
-18 -25 -26 -25 -20 0 -76 48 -76 65 0 27 71 26 99 -1z m3271 -14 c0 -16 -4
-30 -10 -30 -5 0 -10 14 -10 30 0 17 5 30 10 30 6 0 10 -13 10 -30z m-8980 -5
c21 -25 4 -48 -31 -43 -38 6 -42 -1 -30 -53 16 -71 -13 -96 -35 -29 l-11 33
-41 -38 c-23 -20 -42 -42 -42 -48 0 -6 12 -21 27 -33 17 -14 24 -26 20 -37 -8
-21 -95 -77 -119 -77 -29 0 -23 39 8 50 17 7 24 16 22 28 -3 15 -14 17 -75 14
-121 -6 -109 36 27 92 50 21 114 57 142 80 97 79 116 87 138 61z m389 -121
c13 -12 9 -16 -22 -29 -20 -8 -47 -15 -61 -15 -27 0 -56 23 -56 45 0 26 111
25 139 -1z m8857 -29 c-3 -9 -14 -15 -23 -13 -20 4 -28 30 -18 55 5 15 8 14
27 -4 13 -13 18 -28 14 -38z m-3462 27 c8 -13 -40 -36 -59 -28 -14 5 -15 9 -5
21 13 16 55 20 64 7z m-6650 -33 c32 -38 35 -65 7 -49 -36 19 -67 80 -42 80 5
0 21 -14 35 -31z m8856 -16 c0 -10 -10 -51 -22 -91 -24 -81 -32 -79 -43 9 -6
50 -4 60 14 78 26 26 51 27 51 4z m940 -23 c0 -16 -4 -32 -10 -35 -6 -4 -10
10 -10 35 0 25 4 39 10 35 6 -3 10 -19 10 -35z m-10201 -40 c46 -75 40 -107
-11 -52 -30 32 -48 64 -48 86 0 32 29 15 59 -34z m7158 8 c30 -28 29 -46 -1
-54 -41 -10 -104 40 -92 72 8 22 61 12 93 -18z m-7030 -20 c34 -37 63 -91 63
-117 0 -20 -2 -22 -16 -10 -21 18 -72 92 -84 123 -12 34 8 35 37 4z m1536 3
c14 -14 -7 -37 -56 -62 -56 -29 -82 -23 -82 21 0 27 6 37 25 48 27 14 96 10
113 -7z m7504 -113 c-4 -32 -25 -90 -56 -152 -72 -149 -106 -183 -131 -137
-14 28 -13 76 3 90 8 6 28 14 45 17 31 6 32 8 32 61 0 64 21 113 62 148 44 37
52 33 45 -27z m-8250 16 c7 -20 -13 -34 -49 -34 -34 0 -46 19 -23 37 26 18 64
17 72 -3z m6346 4 c10 -8 18 -29 20 -53 2 -38 1 -40 -27 -38 -33 2 -86 48 -86
74 0 27 64 38 93 17z m-7157 -106 c-12 -12 -18 8 -10 35 l8 28 4 -28 c2 -16 1
-31 -2 -35z m240 -23 c31 -29 30 -39 -3 -39 -68 0 -134 34 -118 61 12 19 93 4
121 -22z m1531 -61 c11 -18 54 -112 97 -208 47 -107 102 -212 141 -270 35 -52
73 -116 84 -142 11 -27 50 -90 87 -140 36 -51 87 -133 111 -183 25 -49 78
-130 118 -180 72 -88 135 -181 135 -197 0 -16 -33 -7 -113 33 -194 98 -333
228 -479 450 -148 225 -231 484 -232 724 -1 149 12 178 51 113z m-1567 -78
c63 -56 132 -111 155 -123 29 -17 40 -29 40 -46 0 -38 -18 -35 -86 16 -77 57
-249 223 -249 241 0 27 31 7 140 -88z m7546 65 c9 -36 0 -133 -14 -147 -9 -9
-12 10 -12 80 0 89 12 121 26 67z m2534 16 c0 -44 -46 -101 -70 -86 -17 11
-11 28 22 62 32 33 48 41 48 24z m-290 -70 c-6 -12 -15 -21 -20 -21 -16 0 -11
32 8 53 14 16 17 17 20 4 2 -9 -2 -25 -8 -36z m-2620 21 c19 -16 21 -22 11
-40 -6 -12 -20 -22 -31 -22 -20 0 -90 55 -90 71 0 17 87 10 110 -9z m-7000 -7
c14 -17 5 -35 -19 -35 -22 0 -45 25 -36 40 9 15 41 12 55 -5z m1694 -87 c20
-27 20 -52 3 -67 -28 -23 -65 37 -45 73 12 22 24 20 42 -6z m-1581 -10 c26
-13 21 -28 -11 -28 -31 0 -75 27 -67 41 6 9 47 3 78 -13z m9687 -22 c0 -7 -9
-21 -20 -31 -18 -16 -20 -16 -26 -1 -4 10 1 25 11 36 18 20 35 18 35 -4z
m-240 -30 c0 -14 -4 -28 -10 -31 -6 -4 -10 7 -10 24 0 17 5 31 10 31 6 0 10
-11 10 -24z m144 -42 c7 -18 -37 -69 -52 -60 -16 10 -15 37 3 63 16 23 40 22
49 -3z m-7924 -54 c26 -26 36 -68 21 -91 -15 -26 -16 -24 34 -53 46 -27 54
-43 33 -64 -21 -21 -46 -13 -72 21 -27 36 -96 175 -96 194 0 20 58 15 80 -7z
m-1584 -42 l49 -33 -35 -3 c-55 -6 -116 7 -135 28 -45 50 47 56 121 8z m7144
2 c0 -16 -4 -30 -10 -30 -11 0 -14 43 -3 53 11 12 13 8 13 -23z m-6916 -13 c8
-12 8 -22 0 -34 -16 -25 -38 -22 -42 5 -7 50 18 67 42 29z m-27 -112 c39 -17
50 -37 37 -74 -15 -41 -51 -35 -91 17 -18 24 -33 53 -33 64 0 17 4 19 27 13
15 -3 42 -13 60 -20z m6893 -65 c0 -26 -25 -85 -39 -94 -14 -9 -71 30 -71 48
0 16 69 65 93 65 11 1 17 -6 17 -19z m65 -10 c21 -23 14 -46 -20 -62 -34 -15
-38 -8 -25 41 12 46 19 50 45 21z m140 -35 c0 -36 -3 -40 -25 -40 -29 0 -35
19 -20 59 16 43 45 31 45 -19z m-6946 -21 c83 -75 175 -173 193 -207 42 -77
11 -57 -108 73 -115 126 -159 180 -146 180 5 0 33 -21 61 -46z m1369 4 c17
-15 15 -67 -3 -74 -19 -8 -42 11 -62 49 -12 25 -13 31 -1 38 14 9 45 3 66 -13z
m102 -14 c6 -14 10 -31 10 -37 -1 -17 -40 32 -40 49 0 23 20 16 30 -12z m5574
-43 c14 -15 15 -24 6 -40 -12 -24 -48 -28 -56 -6 -9 22 4 65 20 65 7 0 21 -9
30 -19z m-2284 -78 c36 -57 38 -73 6 -73 -32 0 -47 22 -54 75 -6 59 10 59 48
-2z m-3334 -111 c46 -71 116 -212 105 -212 -18 0 -192 287 -191 315 1 13 43
-38 86 -103z m5504 80 c0 -10 12 -29 26 -43 14 -13 35 -41 46 -62 48 -95 85
-389 74 -591 -8 -143 -20 -202 -56 -283 -22 -49 -35 -65 -65 -79 -21 -9 -50
-35 -66 -57 -24 -33 -29 -50 -29 -96 0 -31 7 -81 15 -111 21 -77 19 -109 -10
-150 -55 -79 -144 -99 -195 -45 -28 30 -84 33 -151 10 -62 -22 -70 -16 -55 42
17 62 71 199 135 341 63 142 119 314 176 547 62 252 92 398 100 485 4 41 11
83 16 93 13 23 39 22 39 -1z m190 -17 c18 -21 5 -47 -22 -43 -31 4 -40 58 -10
58 11 0 25 -7 32 -15z m-5534 -70 c38 -19 57 -33 42 -29 -20 4 -29 1 -38 -15
-14 -27 -38 -27 -67 1 -22 20 -33 78 -15 78 5 0 40 -16 78 -35z m6506 18 c22
-20 23 -46 3 -63 -21 -18 -42 -6 -50 29 -11 50 11 66 47 34z m604 -45 c-6 -33
-23 -58 -37 -58 -14 0 -11 28 6 60 21 40 39 39 31 -2z m-732 16 c9 -3 16 -10
16 -16 0 -14 -63 -5 -68 10 -4 13 25 16 52 6z m-3155 -17 c19 -24 -27 -53 -75
-48 -18 2 -26 32 -13 47 15 18 73 18 88 1z m3058 -54 c-14 -14 -19 -15 -29 -4
-11 10 -9 15 6 27 27 20 47 0 23 -23z m-1112 4 c32 -24 13 -61 -40 -75 -25 -7
-52 -12 -60 -12 -35 0 -3 73 39 90 30 12 40 12 61 -3z m460 -27 c4 -6 4 -18 1
-27 -5 -12 -9 -13 -21 -3 -8 7 -15 19 -15 26 0 16 26 19 35 4z m-6713 -83 c93
-104 138 -166 138 -189 0 -27 -28 -58 -51 -58 -24 0 -34 21 -49 100 -13 71
-36 100 -77 100 -27 0 -53 48 -53 99 0 42 15 33 92 -52z m1139 73 c27 -15 26
-66 -1 -75 -28 -9 -50 11 -50 45 0 24 7 34 28 39 2 1 12 -4 23 -9z m3225 -36
c21 -31 15 -68 -12 -72 -26 -4 -84 51 -84 78 0 36 72 32 96 -6z m2501 1 c7
-19 -24 -55 -47 -55 -9 0 -25 6 -35 14 -19 14 -19 15 -1 35 23 25 74 28 83 6z
m-651 -94 c28 -44 31 -106 4 -106 -18 0 -69 91 -70 123 0 37 36 28 66 -17z
m534 14 c0 -10 9 -12 34 -8 41 7 119 -26 136 -57 12 -23 6 -100 -11 -131 -10
-19 -61 -31 -95 -23 -18 5 -24 13 -24 34 0 20 -6 29 -22 34 -22 5 -22 6 -6 22
9 10 45 22 79 29 l63 11 -36 17 c-20 9 -54 17 -77 17 -35 0 -43 4 -56 30 -9
17 -13 35 -10 40 8 13 25 3 25 -15z m-5528 -40 c6 -30 -12 -69 -33 -73 -9 -2
-21 9 -28 24 -10 22 -9 31 4 50 21 32 51 31 57 -1z m7457 -37 c-7 -13 -15 -78
-19 -145 -4 -74 -12 -128 -19 -137 -11 -13 -9 -21 8 -49 21 -34 21 -33 -17
-96 -11 -18 -9 -23 13 -43 17 -14 25 -32 25 -53 0 -40 -49 -216 -90 -320 -17
-44 -35 -112 -41 -152 -10 -66 -14 -74 -43 -91 -42 -25 -125 -119 -157 -179
-21 -40 -37 -54 -93 -83 -37 -19 -71 -41 -75 -49 -5 -8 -29 -24 -52 -36 -24
-12 -70 -36 -103 -53 -51 -28 -67 -32 -135 -32 -177 1 -296 38 -344 108 -54
78 -57 129 -15 217 l22 45 25 -48 c18 -32 38 -53 64 -65 29 -15 45 -33 68 -78
16 -33 37 -63 45 -66 9 -3 29 2 45 11 16 10 60 21 97 24 89 10 139 40 236 142
115 123 72 131 -56 11 -94 -86 -146 -121 -182 -120 l-31 1 32 14 c17 7 34 18
37 23 3 5 -21 39 -55 76 -33 37 -58 69 -55 72 3 3 33 -15 67 -41 63 -48 120
-61 147 -34 17 17 15 24 -9 47 -16 15 -20 27 -16 49 5 22 1 34 -13 47 -30 27
-24 50 23 98 42 44 61 53 200 92 32 9 55 20 52 25 -12 20 -76 22 -122 5 -38
-15 -47 -15 -54 -4 -20 31 -1 45 80 58 35 6 65 12 68 14 2 3 -10 10 -26 17
-33 13 -69 11 -144 -11 -46 -13 -50 -12 -63 6 -19 25 -18 54 3 77 21 23 36 23
58 -2 23 -26 37 -25 83 4 64 40 67 47 47 121 -24 89 -17 95 74 60 89 -34 104
-30 95 25 -6 36 -4 42 15 47 29 7 26 20 -9 38 -43 22 -58 19 -65 -15 -8 -37
-19 -44 -45 -30 -15 8 -20 19 -18 38 2 22 14 32 59 54 64 30 129 87 129 113 0
17 -11 18 -149 12 -112 -4 -159 -10 -186 -23 -41 -19 -155 -147 -186 -206 -33
-65 -23 -65 56 3 33 28 77 59 97 70 43 22 118 26 118 6 0 -11 -74 -58 -152
-97 -34 -16 -36 -30 -5 -30 36 0 67 -27 67 -60 0 -32 -7 -38 -65 -60 -26 -10
-50 -31 -71 -60 -18 -25 -45 -59 -61 -76 l-29 -32 23 -28 c34 -43 65 -114 58
-133 -6 -14 -9 -13 -25 7 -11 13 -22 38 -25 55 -4 18 -13 41 -21 52 -26 35
-35 0 -28 -103 l6 -93 -37 15 c-57 24 -65 21 -65 -23 0 -74 -42 -141 -87 -141
-37 0 -53 51 -53 172 0 128 24 277 54 343 64 139 365 463 446 481 14 4 41 25
61 47 32 36 42 41 73 39 70 -5 178 33 326 114 25 13 61 24 82 24 37 0 38 -1
27 -22z m-4291 -15 c12 -21 -5 -73 -24 -73 -19 0 -28 44 -14 69 13 25 26 27
38 4z m-2940 -44 c16 -16 38 -48 47 -70 17 -37 17 -40 0 -59 -10 -11 -24 -20
-32 -20 -18 0 -17 25 2 40 31 26 12 50 -40 50 -26 0 -55 24 -55 45 0 15 27 45
40 45 4 0 21 -14 38 -31z m4717 -24 c30 -29 32 -51 6 -65 -65 -34 -143 27 -95
74 23 23 61 19 89 -9z m-4841 -63 c-5 -34 -2 -44 25 -74 29 -34 42 -78 22 -78
-14 0 -70 68 -89 106 -15 33 -15 35 8 59 33 35 41 31 34 -13z m3125 1 c19 -67
7 -113 -28 -113 -34 0 -42 69 -16 120 21 40 32 38 44 -7z m-4204 -38 c20 -19
25 -34 25 -74 0 -27 -4 -52 -9 -55 -13 -8 -59 31 -76 64 -18 35 -19 62 -3 78
18 18 36 15 63 -13z m5945 -19 c0 -6 -10 -29 -23 -51 -43 -76 -137 -84 -121
-11 9 45 19 51 48 32 34 -22 46 -20 46 7 0 13 5 28 11 34 13 13 39 6 39 -11z
m552 -13 c6 -29 -4 -64 -19 -70 -18 -7 -53 25 -53 48 0 34 65 54 72 22z m838
-53 c0 -6 -7 -22 -16 -35 -15 -23 -15 -27 0 -50 22 -33 21 -35 -13 -35 -38 0
-64 25 -56 54 11 38 85 96 85 66z m695 -30 c15 -6 9 -9 -25 -9 -34 0 -40 3
-25 9 11 5 22 9 25 9 3 0 14 -4 25 -9z m-7716 -94 c35 -44 40 -76 12 -76 -41
0 -92 76 -77 116 8 20 26 9 65 -40z m-164 24 c22 -25 13 -52 -17 -48 -22 3
-51 45 -42 60 9 15 41 8 59 -12z m5701 5 c25 -10 34 -20 32 -32 -5 -25 -110
-25 -134 -1 -42 42 27 64 102 33z m-4577 -16 c39 -14 57 -42 37 -58 -26 -22
-106 26 -106 63 0 10 35 7 69 -5z m5255 -5 c22 -21 11 -34 -28 -34 -39 0 -62
20 -44 38 17 17 54 15 72 -4z m-4994 -94 c0 -5 -4 -10 -10 -10 -11 0 -60 70
-60 85 1 13 70 -61 70 -75z m5725 20 l50 -50 -35 7 c-19 4 -51 8 -70 8 -34 0
-35 -1 -32 -38 3 -32 0 -39 -27 -55 -36 -20 -38 -32 -12 -56 21 -19 33 -53 21
-61 -7 -4 -103 10 -143 21 -9 3 -22 14 -28 26 -19 36 8 75 100 143 47 35 92
73 99 84 7 12 16 21 20 21 4 0 30 -23 57 -50z m-3007 -13 c2 -16 -2 -35 -9
-43 -10 -13 -14 -12 -30 2 -19 17 -25 54 -12 68 17 17 48 0 51 -27z m1502 9
c0 -15 -27 -29 -40 -21 -5 3 -7 12 -3 20 7 19 43 20 43 1z m-5292 -8 c13 -13
16 -47 6 -72 -10 -26 -53 -20 -66 9 -10 22 -8 29 12 50 27 28 31 30 48 13z
m6146 -1 c17 -12 16 -15 -10 -46 -24 -29 -31 -32 -63 -26 -74 13 -111 26 -111
39 0 21 27 29 156 45 5 0 18 -5 28 -12z m-744 -30 c0 -28 -26 -67 -46 -67 -17
0 -18 30 -2 65 14 32 48 34 48 2z m-153 -44 c21 -32 10 -40 -32 -20 -32 15
-44 35 -29 49 11 11 46 -5 61 -29z m-4282 -6 c19 -30 30 -83 17 -91 -12 -7
-92 78 -92 99 0 25 57 19 75 -8z m-834 -8 c37 -37 9 -89 -42 -76 -62 16 -76
61 -26 85 33 16 45 14 68 -9z m1101 -58 c40 -27 86 -63 102 -80 25 -26 27 -33
16 -46 -10 -12 -10 -21 -2 -40 16 -34 -6 -33 -48 2 -24 19 -31 32 -27 50 5 27
-15 53 -41 53 -39 0 -112 68 -112 105 0 17 48 -1 112 -44z m392 24 c8 -22 -8
-57 -39 -83 -21 -19 -25 -28 -20 -53 6 -25 4 -29 -15 -29 -36 0 -60 19 -60 47
0 35 36 91 74 114 38 23 52 24 60 4z m2220 -10 c22 -33 20 -48 -4 -40 -34 11
-25 -33 10 -53 36 -20 38 -55 2 -60 -18 -3 -27 6 -47 50 -27 58 -32 97 -13
116 18 18 34 14 52 -13z m1333 -22 c2 -6 -9 -26 -25 -44 -26 -29 -32 -31 -46
-20 -20 17 -20 31 0 59 17 25 64 28 71 5z m-3412 -29 c11 -11 14 -25 10 -44
-5 -23 1 -35 38 -73 28 -28 56 -47 73 -49 l29 -4 -27 -14 c-23 -11 -39 -11
-96 0 -60 11 -72 11 -100 -4 -31 -16 -33 -16 -58 9 -31 31 -24 45 23 45 34 0
35 1 29 28 -19 75 -19 78 9 101 33 25 48 26 70 5z m-1464 -30 c67 -34 9 -68
-66 -39 -50 19 -60 29 -51 52 7 18 70 12 117 -13z m773 5 c30 -23 34 -44 10
-53 -26 -10 -73 41 -59 64 9 15 19 12 49 -11z m1264 -18 c11 -7 11 -9 -2 -14
-22 -9 -20 -24 4 -37 18 -9 27 -6 57 20 44 39 5 43 498 -55 413 -83 619 -115
731 -115 99 0 122 -12 241 -123 118 -109 213 -181 314 -235 41 -23 84 -50 94
-61 21 -24 17 -26 -58 -36 -62 -8 -79 4 -66 47 5 18 7 34 4 36 -11 12 -71 -15
-80 -36 -12 -27 -34 -28 -84 -2 -54 27 -84 67 -77 102 5 25 3 28 -21 28 -15 0
-34 -7 -44 -16 -28 -25 -89 -43 -149 -43 -69 -1 -82 7 -95 60 -8 34 -16 44
-37 50 -37 10 -226 -7 -318 -27 -138 -31 -145 -31 -184 11 -43 45 -83 47 -78
3 2 -17 -4 -33 -19 -47 -22 -21 -22 -21 -2 -21 37 0 48 -25 34 -83 -13 -57
-44 -97 -75 -97 -20 0 -19 1 3 13 13 6 24 16 24 21 0 11 -96 135 -105 136 -4
0 -4 -15 -1 -33 7 -47 -19 -105 -52 -113 -32 -8 -59 14 -87 71 -28 56 -67 95
-95 95 -13 0 -41 -10 -62 -22 -50 -29 -80 -20 -147 44 -52 49 -54 50 -54 24 0
-14 -5 -26 -11 -26 -19 0 -48 20 -60 42 -10 18 -8 24 11 38 13 10 20 22 16 28
-16 26 -247 89 -280 76 -22 -8 -20 -20 9 -58 25 -32 32 -56 18 -56 -5 0 -23 9
-42 21 -32 20 -33 22 -28 72 4 49 3 54 -29 84 -19 17 -34 34 -34 37 0 17 86 1
195 -35 140 -46 162 -47 157 -6 -3 23 2 30 33 43 52 21 59 12 52 -66 -6 -77
-1 -110 19 -110 21 0 41 40 54 107 7 35 18 71 25 80 13 17 15 17 39 -6 23 -21
32 -23 82 -18 31 3 61 10 66 15 12 12 -100 62 -138 62 -52 0 -305 67 -407 108
-28 11 -35 17 -25 23 17 11 249 11 266 0z m2932 -20 c0 -26 -44 -76 -58 -67
-12 7 -7 28 16 64 18 27 42 29 42 3z m-3347 -26 c19 -13 19 -15 4 -15 -24 0
-77 28 -77 40 0 11 42 -3 73 -25z m2166 11 c7 -8 16 -27 20 -43 7 -26 12 -28
70 -34 45 -4 69 -12 84 -28 l21 -21 -22 -16 c-12 -8 -22 -26 -22 -39 0 -50
-43 -39 -81 21 -13 22 -38 43 -63 54 -45 19 -84 75 -73 104 8 20 50 21 66 2z
m1739 -22 c6 -65 -42 -123 -93 -110 -32 8 -32 28 0 82 41 70 88 84 93 28z
m740 15 c34 -13 21 -33 -23 -37 -60 -5 -114 25 -89 50 7 7 81 -2 112 -13z
m-6133 -9 c9 -15 -14 -40 -36 -40 -24 0 -33 18 -19 35 14 17 46 20 55 5z
m4593 -13 c5 -27 -7 -67 -20 -67 -15 0 -78 48 -78 60 0 11 50 29 75 27 11 -1
21 -10 23 -20z m1089 -3 c66 -17 83 -29 83 -56 0 -21 -58 -51 -122 -62 -37 -7
-38 -6 -38 25 0 29 -2 31 -27 25 -63 -16 -67 -14 -73 30 -9 64 -6 67 61 60 32
-4 84 -14 116 -22z m-5609 -27 c23 -24 57 -97 45 -96 -21 2 -98 58 -101 73 -4
17 14 46 27 46 4 0 17 -10 29 -23z m666 4 c10 -11 25 -17 36 -14 12 3 20 -2
24 -14 11 -36 192 -159 319 -218 58 -27 77 -40 77 -55 0 -29 -29 -25 -103 14
-160 83 -397 259 -397 294 0 18 25 14 44 -7z m886 -17 c0 -21 -4 -25 -22 -22
-15 2 -24 11 -26 26 -3 18 1 22 22 22 21 0 26 -5 26 -26z m-1400 -9 c38 -13
52 -41 26 -51 -25 -9 -74 15 -97 48 l-21 29 29 -7 c15 -4 44 -12 63 -19z
m3321 -4 c30 -30 37 -55 19 -66 -14 -9 -55 19 -76 50 -32 49 11 61 57 16z
m2370 -20 c38 -38 37 -59 -3 -76 -29 -12 -34 -12 -45 2 -7 9 -13 36 -13 60 0
53 18 57 61 14z m-4136 9 c11 -18 -4 -47 -31 -59 -22 -9 -31 -9 -50 4 -28 18
-29 23 -7 47 17 19 78 25 88 8z m2983 -28 c2 -20 -4 -44 -14 -59 -16 -25 -17
-26 -30 -8 -15 20 -19 87 -7 99 4 4 16 6 28 4 15 -2 21 -12 23 -36z m-3580
-38 c59 -33 78 -54 49 -54 -14 0 -88 46 -127 80 -21 18 -22 21 -5 15 11 -3 48
-22 83 -41z m2267 -1 c4 -14 2 -23 -4 -23 -13 0 -31 33 -31 56 0 16 2 16 14 4
8 -8 17 -25 21 -37z m1014 13 c12 -27 16 -28 57 -22 50 6 51 5 30 -64 -13 -43
-15 -45 -49 -42 -28 3 -38 -1 -47 -17 -14 -27 9 -83 44 -106 14 -10 26 -24 26
-31 0 -28 -30 -13 -88 46 -72 71 -120 85 -75 21 15 -23 15 -25 -2 -37 -27 -20
-72 -17 -95 6 -16 16 -19 28 -14 54 7 40 20 34 -163 75 -233 52 -297 101 -134
101 43 0 65 -5 84 -20 14 -11 39 -20 56 -20 33 0 240 38 255 47 5 3 -6 14 -25
24 l-34 19 80 -3 c77 -2 80 -3 94 -31z m1661 6 c0 -27 -31 -72 -50 -72 -23 0
-40 14 -40 33 0 28 38 67 67 67 19 0 23 -5 23 -28z m-5632 -6 c29 -15 68 -53
61 -60 -2 -3 -33 5 -69 17 -43 15 -66 28 -68 40 -4 22 37 23 76 3z m206 -29
c76 -40 108 -69 94 -83 -16 -15 -208 92 -208 117 0 18 37 8 114 -34z m-356
-10 c4 -20 -25 -34 -40 -19 -15 15 -1 44 19 40 10 -2 19 -11 21 -21z m1073
-23 c14 -7 31 -20 39 -29 11 -13 9 -19 -10 -40 -30 -32 -36 -31 -66 4 -14 17
-38 31 -59 35 -40 8 -47 32 -12 46 25 10 70 4 108 -16z m4840 16 c10 -6 19
-17 19 -25 0 -14 -29 -35 -48 -35 -16 0 -23 30 -12 51 12 22 15 23 41 9z
m-2523 -80 c66 -44 122 -102 122 -126 0 -28 -32 -29 -52 0 -11 14 -45 38 -75
52 -41 20 -58 35 -69 60 -28 68 -12 71 74 14z m956 -37 c-7 -43 -13 -79 -13
-80 -1 -2 -17 -3 -36 -3 -48 0 -46 23 10 99 25 34 46 61 48 61 2 0 -2 -35 -9
-77z m-4098 43 c10 -8 16 -18 12 -22 -10 -9 -58 12 -58 26 0 14 23 12 46 -4z
m284 -54 c13 -8 19 -17 13 -19 -14 -5 -69 22 -79 38 -9 14 32 3 66 -19z m3269
-28 c124 -67 114 -124 -21 -124 l-51 0 21 23 c29 31 28 61 -5 87 -39 30 -76
23 -83 -15 -7 -44 -50 -47 -90 -6 -38 38 -38 48 3 60 57 18 170 6 226 -25z
m-2817 9 c24 -22 25 -89 1 -101 -31 -16 -93 12 -93 40 0 19 50 78 66 78 4 0
16 -7 26 -17z m418 -3 c20 -10 60 -70 60 -89 0 -23 -29 -10 -64 29 -36 41 -41
51 -29 63 8 9 11 9 33 -3z m-260 -55 c7 -8 13 -38 14 -67 1 -53 1 -53 -31 -56
-79 -8 -96 51 -35 121 19 21 36 22 52 2z m257 -82 c18 -16 41 -44 51 -63 23
-44 47 -46 48 -5 1 35 19 36 47 3 21 -25 22 -52 1 -72 -30 -30 -97 -10 -149
44 -35 37 -44 38 -37 5 7 -38 -15 -30 -28 11 -16 46 -5 104 18 104 10 0 32
-12 49 -27z m1344 10 c18 -18 -64 -36 -144 -30 -77 5 -105 20 -66 37 32 13
195 8 210 -7z m1499 -64 c0 -4 -13 -23 -29 -41 -15 -18 -34 -50 -41 -71 l-12
-39 -23 22 c-16 15 -33 21 -56 18 -50 -5 -45 24 5 34 51 11 62 21 93 82 l25
50 19 -23 c11 -13 19 -27 19 -32z m409 35 c36 -26 54 -79 41 -120 -13 -40 -17
-41 -46 -13 -31 29 -61 12 -69 -39 -11 -74 -19 -86 -62 -107 -24 -11 -43 -22
-43 -26 0 -3 11 -12 24 -19 43 -22 44 -70 2 -70 -25 0 -76 48 -76 71 0 18 137
298 158 322 19 21 41 22 71 1z m-3384 -29 c0 -13 -8 -21 -22 -23 -17 -3 -23 2
-23 16 0 10 3 22 7 26 13 13 38 1 38 -19z m1096 8 c36 -22 37 -29 2 -28 -25 0
-28 -4 -31 -37 -3 -36 -2 -37 35 -40 45 -4 76 -45 57 -75 -17 -26 -83 -22
-105 6 -22 27 -35 140 -20 170 14 25 24 26 62 4z m1603 -6 c15 -11 18 -27 17
-82 0 -38 -5 -73 -11 -79 -13 -13 -64 10 -54 25 4 6 1 36 -7 66 -12 51 -11 57
6 69 23 17 27 17 49 1z m91 1 c28 -13 33 -36 10 -44 -20 -8 -45 13 -45 37 0
22 1 23 35 7z m792 -43 c13 -28 14 -37 3 -50 -17 -21 -47 -19 -60 4 -11 22
-14 84 -4 94 12 12 45 -14 61 -48z m109 -38 c6 -19 -23 -97 -36 -97 -3 0 -7
20 -9 44 -1 24 -6 59 -11 77 -6 19 -10 38 -10 43 0 15 59 -45 66 -67z m-1231
32 c35 -42 20 -60 -30 -36 -36 17 -44 34 -23 55 18 18 23 15 53 -19z m1308
-16 c56 -78 71 -112 58 -139 -12 -26 -33 -31 -49 -11 -11 13 -55 126 -66 170
-10 43 17 34 57 -20z m-3199 16 c27 -22 34 -57 14 -77 -17 -17 -23 -15 -63 19
-37 33 -42 48 -23 67 18 18 42 15 72 -9z m700 11 c19 -7 26 -17 26 -35 0 -39
-27 -42 -62 -7 -43 43 -24 65 36 42z m-822 -59 c29 -26 31 -30 15 -36 -24 -10
-82 3 -97 20 -10 12 -10 18 0 30 19 23 46 18 82 -14z m1006 14 c79 -24 65 -65
-15 -43 -40 11 -113 45 -113 53 0 11 79 4 128 -10z m2421 -11 c31 -40 26 -96
-7 -75 -12 7 -32 63 -32 88 0 21 17 15 39 -13z m-789 1 c26 -13 30 -21 30 -55
0 -22 -5 -40 -10 -40 -36 0 -127 80 -114 101 8 14 62 11 94 -6z m-1422 -20
c36 -31 54 -72 50 -116 -2 -27 -8 -35 -26 -37 -51 -8 -111 71 -112 146 0 29 3
32 29 32 17 0 42 -11 59 -25z m202 -92 c0 -33 -65 3 -81 44 -5 14 -6 29 -3 35
7 12 84 -60 84 -79z m476 53 c39 -39 47 -86 15 -86 -15 0 -19 6 -18 27 3 38
-28 41 -73 8 -32 -24 -36 -24 -47 -8 -31 42 -1 93 55 93 25 0 42 -8 68 -34z
m-1601 4 c4 -6 -12 -10 -40 -10 -28 0 -44 4 -40 10 3 6 21 10 40 10 19 0 37
-4 40 -10z m1224 -21 c16 -48 14 -71 -6 -67 -19 3 -44 64 -36 85 9 23 31 13
42 -18z m-654 -30 c0 -20 -39 -23 -55 -4 -10 12 -10 18 0 30 11 13 16 14 34 2
12 -8 21 -21 21 -28z m1322 -44 c91 -115 115 -158 111 -197 -2 -26 -8 -34 -26
-36 -51 -7 -131 90 -118 143 13 52 -27 105 -80 105 -40 0 -42 7 -13 44 33 41
56 30 126 -59z m229 -15 c22 0 64 -42 64 -64 0 -32 -53 -80 -78 -71 -25 7 -82
70 -82 89 0 8 7 19 15 26 21 17 19 37 -5 43 -15 4 -20 14 -20 38 l0 33 48 -47
c26 -26 53 -47 58 -47z m121 58 c31 -29 29 -38 -6 -38 -40 0 -74 34 -54 53 12
13 37 7 60 -15z m-862 -4 c23 -9 45 -57 45 -98 0 -66 -37 -53 -81 28 -31 60
-16 90 36 70z m-245 -74 c11 -7 4 -10 -25 -9 -31 0 -36 2 -20 9 26 11 28 11
45 0z m133 -32 c2 -7 2 -19 -1 -26 -3 -10 -9 -9 -23 4 -11 9 -19 21 -19 26 0
13 38 9 43 -4z m471 -38 c25 -9 56 -56 56 -85 0 -10 -10 -15 -31 -15 -28 0
-30 2 -27 33 l3 32 -47 -3 c-38 -3 -48 0 -48 12 0 30 48 44 94 26z m643 -70
c7 -19 12 -52 12 -72 1 -34 -2 -38 -25 -38 -36 0 -61 16 -79 51 -20 37 -12 65
23 84 38 21 55 15 69 -25z m-162 -99 c14 -21 28 -54 32 -74 5 -33 3 -37 -22
-43 -23 -6 -33 -2 -52 20 -35 41 -29 136 9 136 4 0 19 -17 33 -39z m-141 -93
c7 -13 16 -42 20 -66 l6 -43 -42 22 c-51 25 -88 57 -88 76 0 15 34 31 67 32
13 1 29 -9 37 -21z m-121 -340 c3 -35 9 -79 13 -98 l7 -35 -41 38 c-22 22 -42
35 -45 29 -4 -5 -3 -32 2 -61 10 -62 -3 -76 -24 -25 -18 43 -20 106 -4 137 16
31 61 77 74 77 7 0 15 -25 18 -62z m4637 -1046 c0 -5 -8 -16 -18 -25 -23 -21
-132 -71 -139 -64 -8 9 21 46 58 73 32 23 99 34 99 16z m-910 -582 c11 -7 7
-10 -17 -10 -18 0 -33 5 -33 10 0 13 30 13 50 0z"/>
<path d="M7147 12404 c-11 -12 13 -44 33 -44 26 0 26 26 1 40 -23 12 -26 12
-34 4z"/>
<path d="M7283 12183 c8 -45 31 -73 48 -56 14 14 5 56 -17 77 -26 27 -37 19
-31 -21z"/>
<path d="M7403 11988 c-26 -12 -30 -28 -9 -28 17 0 60 -54 70 -86 4 -14 -1
-30 -16 -49 -21 -27 -21 -29 -3 -39 33 -19 95 -78 95 -90 0 -6 -9 -19 -20 -29
-23 -19 -17 -47 10 -47 31 0 59 -53 109 -203 65 -192 78 -217 96 -188 6 11
-24 150 -60 276 -37 128 -118 327 -167 415 -45 78 -62 89 -105 68z"/>
<path d="M7560 11410 c0 -20 25 -38 36 -27 8 7 -15 47 -26 47 -6 0 -10 -9 -10
-20z"/>
<path d="M7736 11139 c-39 -42 -42 -62 -12 -67 53 -11 95 31 82 82 -9 36 -28
32 -70 -15z"/>
<path d="M7614 11125 c-4 -9 -2 -21 4 -27 15 -15 44 -1 40 19 -4 23 -36 29
-44 8z"/>
<path d="M7635 10916 c-7 -37 1 -76 15 -76 5 0 21 11 37 24 l28 24 -20 22
c-11 12 -27 26 -37 31 -14 8 -18 3 -23 -25z"/>
<path d="M7652 10708 c-17 -17 -15 -38 3 -38 16 0 38 34 28 44 -9 9 -18 7 -31
-6z"/>
<path d="M7635 10540 c-7 -11 38 -60 55 -60 6 0 13 7 17 17 11 29 -56 69 -72
43z"/>
<path d="M7300 9811 c0 -15 70 -72 81 -66 13 9 -5 39 -35 59 -28 18 -46 21
-46 7z"/>
<path d="M7671 9621 c-21 -14 -4 -30 40 -37 41 -7 65 -33 55 -60 -5 -12 -18
-8 -69 20 -81 46 -89 46 -85 -1 4 -46 43 -76 121 -93 48 -10 53 -9 70 11 25
31 24 122 -3 149 -21 21 -102 28 -129 11z"/>
<path d="M7205 9533 c-24 -6 -45 -22 -45 -34 0 -5 9 -18 20 -29 19 -19 22 -19
57 -5 21 9 45 23 55 32 35 32 -17 53 -87 36z"/>
<path d="M7510 9492 c0 -5 9 -17 20 -27 20 -18 20 -17 20 8 0 20 -5 27 -20 27
-11 0 -20 -4 -20 -8z"/>
<path d="M7436 9441 c-3 -5 1 -15 10 -22 17 -14 44 -4 52 19 4 14 -54 17 -62
3z"/>
<path d="M7293 9423 c-20 -7 -15 -31 7 -43 23 -12 40 -6 40 15 0 17 -30 34
-47 28z"/>
<path d="M7640 9404 c-12 -32 -6 -44 24 -44 13 0 29 -7 36 -15 11 -13 9 -21
-8 -45 -12 -16 -22 -36 -22 -45 0 -37 70 -30 96 11 23 35 5 92 -41 133 -44 38
-72 40 -85 5z"/>
<path d="M7356 9311 c-11 -18 40 -43 81 -39 l38 3 -26 17 c-32 23 -85 33 -93
19z"/>
<path d="M7690 9188 l-65 -21 40 -14 c95 -33 97 -81 4 -98 -39 -8 -55 -15 -57
-29 -3 -16 2 -18 50 -15 l53 4 54 -159 c29 -88 54 -175 54 -194 1 -24 12 -46
42 -80 35 -40 41 -53 45 -106 3 -32 10 -61 16 -63 15 -5 34 42 41 100 6 47 5
49 -43 98 l-48 49 13 42 c27 89 26 105 -8 143 -17 20 -31 42 -31 50 0 7 -11
27 -25 43 -42 50 -31 76 33 74 l35 -2 -31 33 c-27 28 -31 40 -34 97 l-3 65
-35 2 c-19 1 -64 -8 -100 -19z"/>
<path d="M7381 9096 c-30 -35 35 -82 69 -51 24 22 16 41 -22 54 -38 13 -33 14
-47 -3z"/>
<path d="M7675 8887 c-24 -18 -11 -37 25 -37 34 0 47 15 30 35 -15 19 -31 19
-55 2z"/>
<path d="M7730 8617 c0 -27 -5 -36 -21 -40 -30 -8 -21 -41 13 -45 33 -4 50 24
46 76 -2 26 -8 38 -20 40 -14 3 -18 -4 -18 -31z"/>
<path d="M7750 8328 c0 -16 19 -38 33 -38 4 0 7 10 5 22 -3 25 -38 39 -38 16z"/>
<path d="M7825 8300 c-10 -17 23 -60 46 -60 27 0 35 27 14 50 -20 22 -50 26
-60 10z"/>
<path d="M7906 8058 c-9 -12 -16 -28 -16 -36 0 -21 39 -92 96 -174 34 -48 52
-82 48 -92 -5 -13 2 -16 46 -16 l52 0 -21 34 -22 34 31 7 c17 4 36 15 43 26
16 25 23 24 67 -11 67 -53 82 -34 24 30 -45 50 -67 57 -93 31 -40 -40 -142
-20 -171 34 -20 37 -9 59 33 66 20 3 40 9 44 12 11 12 -19 37 -46 37 -14 0
-41 9 -59 20 -40 25 -38 25 -56 -2z"/>
<path d="M5450 10575 c-6 -8 -9 -18 -6 -23 9 -14 42 -21 57 -11 11 6 9 12 -5
28 -23 25 -30 26 -46 6z"/>
<path d="M5680 10358 c0 -16 19 -38 33 -38 4 0 7 10 5 22 -3 25 -38 39 -38 16z"/>
<path d="M5867 10129 c14 -15 27 -19 40 -15 16 7 16 9 -7 21 -40 23 -58 19
-33 -6z"/>
<path d="M6514 10223 c15 -38 104 -187 156 -260 53 -73 80 -98 80 -73 0 18
-158 277 -192 316 -32 37 -54 45 -44 17z"/>
<path d="M10107 8745 c-22 -46 -21 -55 2 -55 21 0 31 19 31 61 0 39 -13 37
-33 -6z"/>
<path d="M10041 8304 c-26 -34 -27 -56 -1 -79 19 -17 22 -17 37 -2 23 22 24
100 2 105 -9 2 -26 -9 -38 -24z"/>
<path d="M9951 7908 c-11 -30 3 -47 27 -32 22 14 22 48 -1 52 -11 2 -20 -5
-26 -20z"/>
<path d="M9803 7795 c-3 -9 -3 -18 0 -21 7 -8 47 15 47 26 0 16 -40 11 -47 -5z"/>
<path d="M9700 7645 c-17 -18 -21 -28 -13 -36 16 -16 68 11 68 36 0 29 -28 29
-55 0z"/>
<path d="M9700 7314 c-6 -14 -10 -39 -10 -55 0 -16 -9 -38 -21 -50 -25 -25
-20 -32 15 -23 29 7 45 30 57 83 13 59 -22 97 -41 45z"/>
<path d="M9540 7232 c-58 -58 -52 -108 10 -82 16 7 36 27 44 45 20 41 20 49 1
65 -12 10 -22 6 -55 -28z"/>
<path d="M9405 7035 c-47 -46 -24 -76 40 -55 44 14 53 34 30 60 -24 26 -41 25
-70 -5z"/>
<path d="M9200 7035 c-6 -8 -9 -19 -5 -25 10 -16 65 -12 72 6 11 30 -44 46
-67 19z"/>
<path d="M9467 6833 c-15 -14 -7 -43 12 -43 26 0 36 17 21 35 -14 16 -23 19
-33 8z"/>
<path d="M9293 6715 c8 -76 13 -81 53 -46 18 17 49 33 69 37 19 3 32 11 29 16
-11 18 -88 48 -123 48 l-34 0 6 -55z"/>
<path d="M9594 6715 c-8 -21 4 -35 30 -35 31 0 50 22 34 38 -17 17 -58 15 -64
-3z"/>
<path d="M9798 6610 c-33 -33 -33 -53 0 -58 45 -7 106 47 87 78 -12 20 -57 10
-87 -20z"/>
<path d="M9300 6518 c0 -30 36 -88 55 -88 8 0 20 10 26 22 10 19 9 24 -12 37
-13 9 -32 24 -41 34 -23 22 -28 22 -28 -5z"/>
<path d="M9453 6449 c11 -7 23 -7 35 0 14 9 11 10 -18 10 -29 0 -32 -1 -17
-10z"/>
<path d="M9394 6278 c4 -51 9 -94 11 -97 3 -2 14 4 25 14 27 25 26 86 -2 136
-34 61 -42 49 -34 -53z"/>
<path d="M9495 6303 c13 -14 107 -44 114 -38 12 13 -31 38 -75 42 -33 4 -46 2
-39 -4z"/>
<path d="M9520 5980 c-19 -19 -19 -22 -5 -43 9 -14 15 -44 15 -84 0 -71 13
-81 36 -28 12 30 12 40 -2 82 -15 43 -15 48 1 59 19 14 12 34 -11 34 -8 0 -23
-9 -34 -20z"/>
<path d="M9325 5866 c-50 -8 -71 -16 -73 -27 -4 -20 25 -29 98 -29 70 0 97 8
102 28 12 44 -4 48 -127 28z"/>
<path d="M9633 5820 c-46 -28 -43 -44 7 -37 44 6 70 22 70 43 0 20 -40 17 -77
-6z"/>
<path d="M9432 5729 c3 -24 33 -48 44 -36 8 8 -23 57 -37 57 -6 0 -9 -10 -7
-21z"/>
<path d="M9521 5726 c-19 -23 -6 -46 26 -46 42 0 61 15 47 37 -14 23 -57 28
-73 9z"/>
<path d="M9433 5524 c-3 -8 -1 -20 5 -26 16 -16 42 -2 42 22 0 24 -38 28 -47
4z"/>
<path d="M2164 7246 c-30 -13 -44 -33 -44 -62 0 -20 39 -17 78 6 38 23 51 48
31 61 -19 12 -28 11 -65 -5z"/>
<path d="M2260 7110 c0 -13 66 -40 96 -40 29 0 31 11 6 33 -20 18 -102 24
-102 7z"/>
<path d="M2233 7005 c-21 -39 -26 -90 -9 -104 8 -7 20 -10 26 -6 11 7 12 66 1
105 -7 24 -8 24 -18 5z"/>
<path d="M2357 6716 c-3 -7 0 -19 6 -25 15 -15 57 -14 57 2 0 32 -52 51 -63
23z"/>
<path d="M2470 6668 c0 -16 19 -38 33 -38 4 0 7 10 5 22 -3 25 -38 39 -38 16z"/>
<path d="M2500 6455 c0 -9 7 -29 15 -45 17 -33 45 -39 65 -15 15 18 1 39 -41
61 -35 18 -39 18 -39 -1z"/>
<path d="M2645 6312 c-41 -9 -75 -42 -75 -73 0 -41 32 -38 66 6 17 22 35 35
50 35 12 0 25 4 28 9 8 12 -43 28 -69 23z"/>
<path d="M2981 6204 c-11 -15 -21 -32 -21 -38 0 -19 22 -36 48 -36 23 0 24 2
18 43 -9 56 -19 64 -45 31z"/>
<path d="M2756 6089 c-14 -17 -26 -36 -26 -43 0 -8 18 -33 40 -57 47 -52 59
-44 53 34 -8 108 -21 121 -67 66z"/>
<path d="M3171 5897 c-38 -13 -50 -31 -27 -40 21 -8 110 19 126 38 11 13 7 15
-26 14 -22 0 -54 -5 -73 -12z"/>
<path d="M3447 5840 c-49 -9 -53 -15 -36 -46 7 -15 14 -34 14 -43 0 -12 9 -16
35 -16 32 0 35 3 40 35 5 34 7 35 55 40 l50 5 -35 12 c-55 18 -82 21 -123 13z"/>
<path d="M3550 5645 c0 -29 29 -48 67 -43 39 4 39 25 1 48 -46 28 -68 26 -68
-5z"/>
<path d="M3887 5502 c-24 -26 -21 -32 12 -32 35 0 48 15 31 35 -16 19 -23 19
-43 -3z"/>
<path d="M11066 8255 c-11 -29 -7 -65 8 -65 21 0 38 26 34 52 -4 27 -33 36
-42 13z"/>
<path d="M10476 6731 c-19 -21 -21 -55 -3 -70 20 -16 37 6 37 45 0 40 -12 49
-34 25z"/>
<path d="M10125 6252 c-5 -6 44 -42 58 -42 4 0 3 8 -2 19 -11 19 -45 33 -56
23z"/>
<path d="M10061 6161 c24 -45 49 -64 49 -39 0 8 -16 30 -37 49 l-36 34 24 -44z"/>
<path d="M2724 8169 c-3 -6 1 -18 9 -27 13 -12 19 -13 31 -3 8 7 12 19 9 27
-6 17 -39 19 -49 3z"/>
<path d="M3153 7220 c6 -47 61 -170 76 -170 14 0 15 -2 -14 74 -14 37 -25 82
-25 101 0 29 -4 35 -21 35 -19 0 -21 -4 -16 -40z"/>
<path d="M3926 6251 c-8 -12 32 -61 50 -61 17 0 17 5 4 30 -13 24 -47 43 -54
31z"/>
<path d="M4412 5768 c-16 -16 -15 -38 1 -38 14 0 47 31 47 43 0 12 -35 8 -48
-5z"/>
<path d="M1090 8338 c0 -61 8 -73 44 -64 40 10 39 34 -4 79 l-39 42 -1 -57z"/>
<path d="M8480 7001 c0 -22 25 -39 38 -27 8 8 -10 38 -26 44 -7 2 -12 -6 -12
-17z"/>
<path d="M6547 6983 c-4 -3 -7 -21 -7 -38 0 -37 35 -75 68 -75 28 0 30 36 2
45 -14 4 -20 15 -20 35 0 16 -7 30 -16 34 -19 7 -19 7 -27 -1z"/>
<path d="M8406 6468 c-18 -25 -21 -64 -6 -73 11 -7 51 12 62 29 4 6 8 23 8 39
0 22 -4 27 -24 27 -14 0 -32 -10 -40 -22z"/>
<path d="M8160 5956 c0 -20 22 -56 35 -56 21 0 19 23 -3 43 -18 16 -32 22 -32
13z"/>
<path d="M8177 5767 c-18 -21 -30 -28 -33 -19 -9 21 -33 13 -40 -13 -14 -56
14 -63 93 -22 36 19 43 34 32 65 -11 29 -19 28 -52 -11z"/>
<path d="M7966 5571 c-13 -15 -14 -20 -4 -23 21 -8 38 3 38 23 0 24 -12 24
-34 0z"/>
<path d="M7860 5445 c0 -20 39 -40 52 -27 6 6 8 18 5 26 -8 20 -57 21 -57 1z"/>
<path d="M7530 5441 c0 -13 60 -55 67 -47 9 8 -37 56 -54 56 -7 0 -13 -4 -13
-9z"/>
<path d="M7744 5426 c-8 -21 3 -36 27 -36 15 0 20 6 17 22 -4 27 -35 37 -44
14z"/>
<path d="M10816 5981 c-16 -26 93 -53 124 -31 13 9 12 12 -4 25 -21 16 -111
21 -120 6z"/>
<path d="M10706 5451 c5 -6 26 -17 47 -26 29 -12 37 -13 37 -2 0 23 -23 37
-59 37 -22 0 -31 -4 -25 -9z"/>
<path d="M10550 5140 c11 -21 98 -76 106 -67 9 9 -5 26 -48 58 -49 35 -74 39
-58 9z"/>
<path d="M9680 5557 c0 -19 21 -37 42 -37 23 0 23 12 0 33 -22 20 -42 22 -42
4z"/>
<path d="M4820 5451 c0 -5 7 -14 15 -21 11 -9 18 -9 35 3 11 7 17 17 13 20
-10 10 -63 8 -63 -2z"/>
<path d="M5775 5350 c-9 -15 14 -40 36 -40 24 0 33 18 19 35 -14 17 -46 20
-55 5z"/>
<path d="M6005 5320 c-4 -6 9 -10 32 -10 28 0 34 3 23 10 -20 13 -47 13 -55 0z"/>
<path d="M6110 5214 c-11 -12 -11 -18 2 -30 14 -14 17 -14 32 1 13 13 14 20 5
31 -15 18 -24 18 -39 -2z"/>
<path d="M6424 5185 c-4 -9 -2 -21 4 -27 15 -15 44 -1 40 19 -4 23 -36 29 -44
8z"/>
<path d="M6818 5189 c-21 -12 -24 -39 -5 -39 13 0 77 37 77 45 0 9 -54 5 -72
-6z"/>
<path d="M5745 5160 c-3 -5 6 -17 20 -26 24 -16 27 -16 45 1 11 10 17 22 14
26 -7 12 -71 11 -79 -1z"/>
<path d="M6002 5148 c2 -15 10 -23 23 -23 30 0 27 39 -3 43 -20 3 -23 0 -20
-20z"/>
<path d="M6600 5155 c-14 -17 -5 -35 19 -35 22 0 45 25 36 40 -9 15 -41 12
-55 -5z"/>
<path d="M5675 5082 c-21 -5 -31 -14 -33 -30 -2 -14 -10 -22 -23 -22 -27 0
-24 -26 6 -46 23 -15 28 -15 89 14 l64 30 20 -21 c10 -12 36 -50 57 -84 20
-34 46 -70 58 -80 20 -18 20 -18 12 22 -4 22 -8 56 -9 75 l-1 35 53 -2 53 -2
-3 36 c-2 26 -11 42 -31 57 -25 18 -44 21 -155 23 -70 1 -140 -1 -157 -5z
m235 -25 c0 -19 -21 -37 -42 -37 -22 0 -23 8 -1 32 19 21 43 24 43 5z"/>
<path d="M6240 5071 c0 -26 15 -34 40 -21 31 17 25 40 -10 40 -23 0 -30 -5
-30 -19z"/>
<path d="M6836 5068 c-20 -28 -4 -58 29 -58 28 0 61 41 51 65 -9 23 -62 19
-80 -7z"/>
<path d="M7935 5230 c-4 -7 -3 -16 3 -22 14 -14 47 -6 47 12 0 18 -40 26 -50
10z"/>
<path d="M7854 5185 c-8 -21 4 -35 32 -35 26 0 32 18 12 38 -16 16 -37 15 -44
-3z"/>
<path d="M9571 5027 c-6 -6 -11 -17 -11 -25 0 -8 -9 -25 -19 -38 -15 -19 -17
-32 -11 -59 9 -39 -1 -45 -35 -22 -11 7 -38 24 -60 38 l-40 24 50 -64 c76 -97
132 -154 147 -149 9 3 14 40 19 139 3 74 4 139 1 146 -5 17 -28 23 -41 10z"/>
<path d="M10390 4503 c0 -13 53 -63 67 -63 22 0 15 27 -13 49 -26 21 -54 28
-54 14z"/>
<path d="M10266 4322 c-3 -6 18 -32 46 -57 29 -26 46 -45 38 -43 -40 14 -211
40 -225 34 -8 -3 -15 -14 -15 -25 0 -29 -13 -33 -66 -21 -26 6 -49 9 -51 6 -7
-6 33 -80 62 -115 37 -43 55 -41 48 4 -5 33 -4 35 22 35 18 0 38 -11 59 -35
54 -58 71 -42 40 35 -22 54 -6 75 30 41 28 -26 84 -39 136 -31 33 5 35 7 32
38 l-4 33 71 -7 c118 -11 87 26 -64 77 -107 35 -151 44 -159 31z"/>
<path d="M5944 4303 c-9 -15 -15 -16 -38 -5 -45 20 -72 15 -105 -23 -22 -25
-31 -46 -31 -70 0 -30 -3 -35 -24 -35 -23 0 -56 -23 -56 -39 0 -4 13 -25 30
-48 16 -22 27 -43 24 -46 -4 -3 8 -32 25 -63 18 -31 30 -62 27 -69 -11 -29 66
-123 186 -227 57 -49 70 -68 93 -127 14 -38 33 -75 41 -82 9 -7 29 -39 45 -71
22 -44 36 -59 57 -64 67 -15 64 -12 45 -45 -17 -29 -17 -31 -1 -43 25 -18 159
-48 194 -44 26 4 21 8 -48 41 -43 20 -78 39 -78 41 0 3 5 17 12 31 11 24 9 29
-19 50 -17 14 -33 37 -36 52 -4 17 -18 35 -35 44 -32 18 -72 106 -72 159 0 19
-14 45 -46 82 -26 31 -50 71 -57 97 -13 46 -79 131 -103 131 -20 0 -18 -9 12
-52 16 -22 24 -44 20 -54 -6 -15 -8 -15 -26 1 -50 45 -74 242 -35 285 14 16
27 20 47 16 36 -7 58 2 58 24 0 24 45 67 85 80 28 9 40 8 72 -8 60 -30 130
-50 236 -67 100 -16 117 -15 117 11 0 9 11 14 35 14 58 0 60 49 4 77 -13 6
-112 16 -219 23 -180 10 -284 19 -385 35 -32 5 -42 3 -51 -12z"/>
<path d="M9890 4134 c0 -6 65 -34 81 -34 7 0 5 8 -6 20 -16 18 -75 29 -75 14z"/>
<path d="M6266 4015 c-14 -38 44 -105 90 -105 13 0 24 2 24 5 0 17 -33 66 -60
89 -36 30 -46 32 -54 11z"/>
<path d="M6874 4018 c10 -8 16 -20 12 -26 -11 -17 -191 -15 -241 3 -22 8 -43
15 -47 15 -18 0 -5 -29 37 -80 97 -119 128 -161 121 -167 -18 -18 -198 129
-223 182 -18 38 -71 65 -126 65 l-32 0 50 -42 c118 -97 280 -280 271 -305 -3
-8 5 -18 20 -25 22 -10 32 -8 69 11 24 13 48 20 54 17 5 -4 20 -24 32 -45 12
-21 35 -44 53 -52 23 -10 40 -31 63 -78 18 -35 44 -76 58 -91 32 -34 118 -75
139 -67 26 10 -3 66 -51 102 -67 49 -72 88 -6 42 21 -14 50 -31 65 -36 44 -17
238 -32 293 -23 48 8 49 8 26 21 -14 8 -86 24 -162 37 -156 25 -203 44 -225
87 -21 40 -9 46 87 40 42 -3 85 -3 94 0 26 11 3 40 -57 72 -136 73 -143 95
-29 95 44 0 82 4 86 10 9 14 -33 36 -105 56 -75 20 -172 66 -200 94 -29 29
-26 49 7 47 18 -1 28 3 31 14 2 13 -9 18 -55 23 -32 4 -74 10 -93 13 -32 5
-34 4 -16 -9z m-13 -197 c59 -62 85 -110 75 -136 -13 -36 -34 -12 -105 118
-23 42 -38 77 -34 77 4 0 33 -27 64 -59z m347 -167 c47 -32 13 -47 -39 -17
-16 10 -29 21 -29 25 0 14 45 9 68 -8z"/>
<path d="M6110 3997 c0 -7 7 -22 15 -34 18 -25 113 -88 122 -80 11 12 -20 67
-54 97 -34 30 -83 41 -83 17z"/>
<path d="M9440 3942 c0 -35 128 -87 262 -107 352 -50 369 -53 414 -80 40 -23
45 -24 51 -9 8 21 -33 56 -85 73 -21 6 -89 18 -152 26 -63 9 -192 36 -287 60
-178 46 -203 51 -203 37z"/>
<path d="M10337 3801 c4 -16 -2 -21 -37 -28 -22 -4 -41 -12 -41 -18 0 -15 80
-23 237 -24 98 -1 154 -6 184 -16 23 -8 61 -15 83 -15 l41 0 -29 30 c-36 38
-71 48 -216 60 -64 6 -131 15 -150 20 -55 16 -78 13 -72 -9z"/>
<path d="M8225 3790 c-3 -6 4 -30 16 -55 31 -63 17 -71 -56 -34 -62 31 -98 34
-102 9 -1 -8 -5 -51 -9 -95 -7 -74 -8 -77 -15 -42 -12 53 -33 91 -69 121 -48
40 -77 34 -44 -9 31 -42 45 -123 59 -362 8 -133 21 -272 30 -310 18 -79 44
-154 58 -168 7 -7 8 -4 3 8 -12 36 -29 302 -22 350 7 43 13 52 53 80 l45 32
-4 75 c-3 66 -1 75 15 78 21 4 62 -30 83 -69 32 -62 37 -126 39 -429 1 -317 6
-375 48 -497 18 -56 102 -181 113 -170 5 5 -42 134 -87 237 -32 73 -33 80 -37
237 -3 130 -1 168 11 192 8 17 18 50 23 73 l7 43 14 -33 c7 -18 18 -67 24
-110 13 -97 17 -112 34 -112 15 0 25 31 25 78 0 17 4 32 8 32 5 0 34 -36 66
-80 48 -68 76 -95 76 -75 0 12 -96 271 -160 433 -53 133 -82 194 -106 219 -19
20 -34 43 -34 52 0 9 -25 39 -56 67 -41 36 -55 56 -51 68 6 14 17 15 77 10 79
-8 87 1 48 52 -58 78 -111 123 -123 104z"/>
<path d="M11492 3782 c-31 -5 -25 -36 7 -40 37 -6 95 8 84 19 -14 14 -64 25
-91 21z"/>
<path d="M9014 3740 c75 -27 138 -71 123 -86 -4 -4 -32 0 -62 10 -81 25 -147
30 -217 16 -87 -17 -124 -38 -189 -109 -45 -49 -62 -61 -86 -61 -17 0 -36 -6
-42 -14 -9 -11 -6 -18 15 -35 15 -12 31 -21 36 -21 5 0 42 -33 81 -73 115
-116 313 -216 401 -202 54 8 163 61 176 86 22 40 -51 34 -140 -11 -58 -30
-100 -33 -139 -12 -52 28 -47 37 22 37 72 1 113 19 226 101 70 52 147 84 198
84 17 0 54 -29 119 -91 53 -50 112 -98 132 -106 21 -8 46 -26 58 -41 22 -27
44 -23 44 8 0 12 -17 28 -49 45 -27 15 -55 39 -62 53 -21 42 -40 62 -61 62
-11 0 -44 24 -74 54 -52 53 -54 57 -54 108 0 94 -56 140 -62 51 -3 -42 -6 -48
-26 -51 -56 -8 -122 46 -122 99 0 21 -5 29 -18 29 -9 0 -41 16 -70 36 -69 46
-122 64 -186 63 l-51 0 79 -29z m40 -161 c30 -35 32 -51 11 -69 -39 -32 -86
17 -71 75 9 33 29 32 60 -6z"/>
<path d="M11295 3760 c8 -13 105 -63 111 -57 10 10 -69 67 -92 67 -15 0 -23
-4 -19 -10z"/>
<path d="M11170 3752 c0 -11 39 -47 69 -62 41 -21 45 4 6 39 -33 29 -75 42
-75 23z"/>
<path d="M11057 3738 c-11 -33 36 -80 63 -63 17 11 11 43 -12 59 -27 19 -45
20 -51 4z"/>
<path d="M8690 3720 c-77 -26 -120 -75 -120 -135 0 -25 4 -45 10 -45 5 0 25
25 45 55 22 35 52 66 83 85 26 16 56 36 67 44 20 15 19 15 -5 15 -14 0 -50 -8
-80 -19z"/>
<path d="M10897 3724 c-12 -12 17 -54 48 -69 65 -30 92 17 31 54 -33 21 -67
27 -79 15z"/>
<path d="M6558 3692 c-24 -5 -22 -18 7 -47 28 -29 53 -32 62 -9 12 32 -29 65
-69 56z"/>
<path d="M6400 3663 c1 -27 76 -81 91 -66 17 17 -1 41 -42 57 -45 18 -49 19
-49 9z"/>
<path d="M7897 3588 c-8 -24 -29 -88 -46 -143 -40 -126 -92 -235 -132 -274
-35 -36 -23 -40 36 -11 43 21 77 59 90 100 4 14 27 71 52 127 47 111 63 187
44 221 -17 32 -28 27 -44 -20z"/>
<path d="M6784 3586 c-11 -28 4 -46 36 -46 28 0 31 3 28 28 -2 21 -9 28 -31
30 -18 2 -29 -2 -33 -12z"/>
<path d="M7700 3448 c-52 -107 -53 -150 -2 -95 45 48 83 177 52 177 -6 0 -29
-37 -50 -82z"/>
<path d="M6886 3408 c12 -40 64 -107 93 -123 68 -35 58 50 -13 113 -45 39 -91
45 -80 10z"/>
<path d="M11804 3371 c-17 -5 -42 -15 -55 -24 -31 -22 -63 -21 -141 3 -85 27
-90 26 -86 -12 3 -29 13 -38 88 -85 149 -93 236 -123 350 -123 86 0 129 13
168 51 40 39 40 57 -1 111 -49 66 -103 88 -207 87 -47 -1 -99 -4 -116 -8z
m137 -117 c17 -21 -3 -34 -56 -34 -22 0 -46 4 -54 9 -26 17 6 41 54 41 27 0
47 -6 56 -16z"/>
<path d="M6770 3342 c0 -13 74 -82 88 -82 19 0 14 35 -9 64 -14 17 -30 26 -50
26 -16 0 -29 -4 -29 -8z"/>
<path d="M8590 3328 c0 -7 25 -36 55 -64 59 -56 162 -114 202 -114 41 0 23 30
-30 50 -26 10 -69 36 -94 57 -93 79 -133 100 -133 71z"/>
<path d="M8212 3278 c-34 -92 -55 -225 -49 -308 5 -75 42 -248 57 -263 11 -12
22 59 15 96 -3 18 -13 60 -21 94 -16 68 -16 71 22 262 24 118 25 171 5 171 -5
0 -18 -24 -29 -52z"/>
<path d="M6640 3290 c0 -16 59 -70 76 -70 20 0 17 34 -3 53 -24 21 -73 33 -73
17z"/>
<path d="M11420 3274 c0 -9 29 -45 65 -80 48 -47 89 -75 160 -110 53 -25 99
-44 102 -41 14 15 -12 38 -84 76 -43 23 -111 70 -151 106 -76 68 -92 76 -92
49z"/>
<path d="M7900 3198 c-7 -24 -21 -55 -32 -71 -11 -15 -18 -35 -16 -45 3 -14
12 -9 46 24 42 41 52 76 36 118 -10 26 -20 18 -34 -26z"/>
<path d="M10960 3210 c-13 -9 -12 -12 4 -25 27 -20 129 -20 146 0 10 12 8 16
-15 25 -34 13 -115 13 -135 0z"/>
<path d="M6435 3150 c-3 -5 12 -17 34 -26 25 -10 48 -28 60 -49 15 -26 29 -35
58 -41 61 -11 73 -21 73 -61 l0 -35 53 6 c62 8 90 -7 90 -49 0 -21 -15 -42
-62 -88 -33 -32 -58 -63 -56 -68 14 -21 139 45 213 113 45 41 48 41 109 17 28
-11 41 -10 102 10 117 38 129 15 51 -100 -56 -82 -64 -107 -27 -88 46 25 110
86 134 129 14 25 53 71 87 102 l61 57 -40 1 c-23 0 -51 -8 -65 -17 -21 -15
-47 -18 -180 -17 -169 1 -255 13 -315 44 -22 11 -54 20 -73 20 -22 0 -40 8
-55 24 -12 12 -38 26 -57 30 -24 4 -51 21 -80 51 -34 35 -51 45 -76 45 -18 0
-36 -4 -39 -10z"/>
<path d="M8567 3153 c-11 -10 -8 -112 3 -134 12 -22 37 -24 64 -4 16 12 20 11
40 -11 17 -20 58 -34 219 -74 207 -52 232 -57 242 -40 10 16 -15 40 -41 40
-13 0 -72 18 -131 41 -80 30 -115 39 -140 34 -44 -8 -78 11 -162 90 -67 63
-81 72 -94 58z"/>
<path d="M10815 3130 c-15 -16 -43 -34 -60 -40 -18 -6 -38 -21 -45 -35 -18
-34 -29 -37 -178 -45 -223 -13 -181 -44 60 -45 l117 0 33 32 c18 17 54 41 81
52 27 12 47 27 47 36 0 18 27 31 85 41 l40 7 -50 13 c-75 20 -98 18 -130 -16z"/>
<path d="M10029 3091 c12 -22 78 -81 91 -81 20 0 9 23 -29 61 -41 42 -80 54
-62 20z"/>
<path d="M7918 3024 c-14 -14 20 -155 40 -162 17 -5 16 90 -2 133 -14 33 -26
42 -38 29z"/>
<path d="M9974 2983 c10 -38 51 -81 59 -60 8 21 -25 81 -47 85 -16 3 -18 0
-12 -25z"/>
<path d="M7515 2979 c-22 -11 -53 -34 -70 -51 l-30 -30 23 -16 c13 -8 46 -50
73 -92 26 -42 62 -88 79 -103 37 -33 44 -60 38 -150 -4 -52 -13 -88 -34 -130
-24 -49 -26 -59 -14 -67 19 -12 61 28 85 81 10 21 21 39 26 39 11 0 22 -145
15 -207 -3 -30 -13 -71 -21 -91 -17 -40 -9 -58 23 -48 56 18 72 175 37 359
-12 65 -15 101 -9 107 24 24 194 -60 194 -96 0 -9 23 -66 50 -128 28 -62 50
-119 50 -127 0 -16 19 -39 31 -39 22 0 17 48 -27 239 -5 23 -2 22 35 -12 77
-70 125 -33 61 45 -48 58 -181 140 -334 207 -156 67 -192 95 -236 185 -36 72
-37 77 -5 104 49 43 25 55 -40 21z"/>
<path d="M9880 2915 c0 -16 27 -57 47 -70 21 -14 23 -14 23 3 0 11 -12 31 -26
46 -24 23 -44 33 -44 21z"/>
<path d="M10827 2808 c-62 -36 -157 -113 -157 -129 0 -17 43 -9 65 11 13 12
45 24 74 29 40 6 59 16 81 39 l29 32 43 -16 c24 -8 55 -13 71 -10 23 5 27 2
27 -18 0 -27 51 -76 78 -76 37 -1 290 54 286 62 -3 4 -16 8 -30 8 -45 0 -177
30 -269 62 -56 19 -117 32 -165 35 -71 4 -78 2 -133 -29z"/>
<path d="M7930 2777 c0 -20 5 -27 20 -27 11 0 20 4 20 8 0 5 -9 17 -20 27 -20
18 -20 17 -20 -8z"/>
<path d="M9952 2774 c-16 -11 -22 -24 -20 -42 3 -25 7 -27 49 -27 34 0 56 -7
88 -29 41 -29 43 -29 98 -16 l57 12 -23 19 c-14 11 -39 19 -62 19 -38 0 -43 3
-94 63 -19 21 -63 22 -93 1z"/>
<path d="M8063 2699 c6 -87 32 -155 49 -125 12 21 -17 157 -39 184 -13 15 -14
7 -10 -59z"/>
<path d="M6690 2703 c-133 -50 -169 -77 -120 -90 25 -7 18 -20 -54 -101 -58
-65 -81 -100 -72 -109 10 -10 92 47 181 127 50 44 109 93 132 107 48 31 66 61
51 86 -12 22 -7 23 -118 -20z"/>
<path d="M8435 2727 c-3 -7 -1 -34 4 -58 6 -24 11 -68 11 -96 0 -59 12 -67 34
-25 36 70 24 184 -22 190 -12 2 -24 -3 -27 -11z"/>
<path d="M7272 2677 c-29 -29 -52 -56 -52 -61 0 -12 56 1 85 20 29 19 59 70
50 84 -12 19 -31 9 -83 -43z"/>
<path d="M10543 2704 c-9 -24 11 -36 58 -32 l44 3 -42 23 c-50 26 -52 26 -60
6z"/>
<path d="M11480 2711 c-52 -16 -130 -62 -130 -76 0 -21 39 -19 102 6 58 23 88
45 88 66 0 14 -21 16 -60 4z"/>
<path d="M7421 2573 c-45 -84 -74 -123 -92 -123 -14 0 -7 -42 8 -47 20 -7 99
80 117 129 10 24 16 62 14 83 l-3 39 -44 -81z"/>
<path d="M10230 2623 c8 -3 27 -19 41 -36 17 -20 32 -28 42 -24 37 14 -24 68
-75 66 -14 0 -17 -3 -8 -6z"/>
<path d="M8221 2560 c0 -40 2 -42 11 -22 8 16 8 28 0 45 -9 19 -11 17 -11 -23z"/>
<path d="M7285 2570 c-25 -10 -50 -38 -42 -47 9 -9 63 16 83 38 16 18 16 19
-2 18 -10 0 -28 -4 -39 -9z"/>
<path d="M7536 2528 c-20 -48 -29 -115 -17 -122 14 -9 38 31 50 83 16 71 -8
99 -33 39z"/>
<path d="M8548 2488 c-14 -26 -18 -221 -5 -252 12 -30 27 -7 43 66 29 138 5
262 -38 186z"/>
<path d="M7833 2420 c5 -91 34 -220 48 -220 15 0 10 152 -6 215 -9 33 -23 67
-32 75 -14 14 -15 7 -10 -70z"/>
<path d="M10867 2473 c-3 -4 -2 -26 2 -48 4 -22 6 -46 3 -53 -7 -21 -100 -15
-139 9 -46 29 -97 21 -137 -22 -17 -18 -35 -29 -45 -25 -9 2 -34 12 -56 20
-45 17 -170 21 -180 6 -8 -13 51 -42 163 -79 118 -39 138 -39 179 1 l32 31 49
-16 c29 -9 66 -13 89 -10 33 4 53 -2 127 -41 71 -38 96 -46 139 -46 62 0 119
25 170 72 85 81 12 105 -84 27 -17 -14 -46 -22 -87 -26 -82 -8 -104 8 -147
100 -32 70 -68 116 -78 100z"/>
<path d="M6475 2356 c-74 -34 -165 -115 -208 -185 -20 -33 -34 -61 -31 -61 3
0 35 27 71 59 36 33 93 74 126 93 83 46 122 81 114 101 -8 22 -12 21 -72 -7z"/>
<path d="M9896 2204 c-9 -8 -16 -27 -16 -40 0 -24 -15 -41 -73 -87 -21 -16
-31 -36 -38 -72 -5 -28 -26 -75 -48 -109 -22 -33 -38 -63 -35 -68 22 -35 105
44 128 122 9 29 16 65 16 79 0 24 1 24 17 8 27 -27 21 -132 -12 -204 -14 -31
-23 -58 -21 -60 3 -3 14 -2 25 2 38 12 53 61 66 211 10 122 15 145 36 173 24
32 24 33 5 47 -25 18 -31 18 -50 -2z"/>
<path d="M8618 2198 c-8 -20 20 -280 31 -291 5 -5 15 -6 21 -2 15 9 8 179 -9
235 -15 50 -36 78 -43 58z"/>
<path d="M10910 2176 c0 -35 129 -101 152 -78 16 16 -4 37 -67 67 -61 28 -85
31 -85 11z"/>
<path d="M10810 2138 c0 -6 12 -27 27 -46 14 -19 32 -51 39 -71 10 -30 17 -37
43 -39 62 -6 49 60 -25 128 -42 38 -84 53 -84 28z"/>
<path d="M6329 2071 c-53 -52 -62 -81 -28 -81 33 0 89 62 89 99 0 17 -3 31 -6
31 -4 0 -29 -22 -55 -49z"/>
<path d="M10740 2095 c0 -26 30 -75 45 -75 19 0 19 23 0 60 -16 32 -45 41 -45
15z"/>
<path d="M10660 2043 c0 -17 40 -72 60 -83 29 -15 39 14 14 41 -22 24 -74 53
-74 42z"/>
<path d="M10555 1983 c4 -10 14 -36 22 -58 19 -51 19 -52 43 -30 27 25 25 41
-9 76 -33 33 -68 40 -56 12z"/>
<path d="M8730 1965 c0 -22 35 -140 56 -191 14 -33 17 -36 26 -20 19 34 -26
182 -65 215 -15 12 -17 11 -17 -4z"/>
<path d="M10432 1938 c-19 -19 -14 -38 11 -38 28 0 47 17 40 36 -6 17 -35 18
-51 2z"/>
<path d="M10312 1888 c-17 -17 -15 -43 3 -58 21 -18 37 0 33 36 -3 31 -18 40
-36 22z"/>
<path d="M8046 1841 c21 -30 68 -102 104 -159 68 -110 105 -147 75 -76 -37 90
-144 240 -194 273 -20 13 -17 6 15 -38z"/>
<path d="M10135 1860 c-4 -6 8 -10 29 -10 20 0 36 5 36 10 0 6 -13 10 -29 10
-17 0 -33 -4 -36 -10z"/>
<path d="M9643 1783 c-22 -8 -14 -32 12 -39 33 -8 75 3 75 20 0 22 -52 34 -87
19z"/>
<path d="M8910 1690 c0 -34 29 -82 48 -78 24 5 25 28 2 66 -22 36 -50 43 -50
12z"/>
<path d="M9522 1680 c-13 -6 -22 -16 -20 -22 5 -15 178 -24 178 -10 0 24 -119
48 -158 32z"/>
<path d="M8490 1504 c1 -22 16 -75 35 -119 18 -44 31 -82 29 -84 -2 -3 -18 6
-35 18 -17 13 -33 21 -35 18 -11 -11 86 -229 137 -309 17 -26 37 -48 45 -48
18 0 18 0 -6 60 -11 28 -27 95 -35 148 -21 139 -81 309 -120 342 -13 11 -15 7
-15 -26z"/>
<path d="M8812 1388 c-15 -15 -16 -104 0 -114 6 -4 17 1 25 11 28 39 5 133
-25 103z"/>
<path d="M8927 1377 c-41 -63 -64 -164 -35 -155 19 7 59 91 65 137 6 46 -6 54
-30 18z"/>
<path d="M9115 1381 c-90 -42 -174 -146 -156 -195 12 -30 33 -26 50 9 7 17 49
66 92 111 92 92 95 113 14 75z"/>
<path d="M9289 1367 c-62 -18 -129 -58 -171 -105 -26 -28 -41 -59 -56 -118
-26 -93 -27 -114 -9 -114 20 0 42 28 77 97 40 83 86 127 152 148 114 36 154
63 130 87 -16 16 -76 18 -123 5z"/>
<path d="M10056 1301 c-9 -14 24 -112 59 -176 40 -72 57 -160 53 -265 l-3 -75
-37 55 c-43 65 -78 103 -85 96 -3 -3 5 -29 17 -58 40 -91 39 -358 -1 -358 -12
0 -37 50 -59 119 -29 92 -68 160 -102 181 -18 11 -33 18 -35 17 -1 -2 6 -27
17 -56 35 -91 101 -363 107 -438 6 -79 -7 -127 -39 -144 -28 -15 -53 11 -74
75 -9 28 -40 105 -69 171 -69 155 -71 162 -50 240 15 53 16 69 5 94 -22 54
-66 51 -56 -4 5 -24 2 -34 -8 -38 -17 -7 -46 -95 -46 -138 0 -18 14 -44 40
-74 51 -59 75 -139 94 -310 17 -157 25 -180 71 -202 40 -19 72 -9 67 22 -4 23
11 39 73 74 95 54 118 108 85 202 -31 92 -14 139 53 139 13 0 34 11 47 25 22
23 22 29 15 107 -13 135 -10 179 13 219 33 54 45 132 32 211 -9 51 -25 89 -67
160 -71 120 -102 154 -117 129z"/>
<path d="M8291 1238 c6 -13 32 -52 58 -88 25 -36 75 -123 112 -194 62 -125 89
-160 89 -118 0 30 -36 126 -76 203 -21 39 -68 104 -107 145 -69 74 -98 94 -76
52z"/>
<path d="M8838 1184 c-3 -3 5 -35 18 -72 13 -37 24 -74 24 -82 0 -9 39 -86 86
-170 47 -85 106 -195 130 -243 25 -48 51 -90 58 -93 8 -3 28 2 45 11 36 18 39
40 15 118 -30 97 -36 107 -91 143 -82 55 -193 195 -193 244 -1 44 -57 150 -80
150 -4 0 -9 -2 -12 -6z"/>
<path d="M9526 1108 c3 -13 13 -35 20 -50 21 -41 44 -147 44 -205 0 -28 5 -64
11 -80 l12 -28 18 42 c11 23 22 68 25 101 8 70 -12 118 -78 195 -43 51 -63 60
-52 25z"/>
<path d="M8660 871 c0 -8 56 -88 80 -115 5 -4 13 -5 19 -2 14 9 -11 60 -47 99
-25 27 -52 36 -52 18z"/>
<path d="M8880 801 c0 -15 34 -79 59 -111 28 -35 37 -18 16 29 -18 42 -75 103
-75 82z"/>
<path d="M9510 582 c0 -5 20 -44 45 -85 51 -84 99 -207 110 -280 8 -54 29 -63
46 -19 21 54 -42 230 -112 315 -33 40 -89 84 -89 69z"/>
</g>
</svg>
